<?xml version="1.0" encoding="UTF-8"?>
<!DOCTYPE svg PUBLIC "-//W3C//DTD SVG 1.1//EN" "http://www.w3.org/Graphics/SVG/1.1/DTD/svg11.dtd">
<svg xmlns="http://www.w3.org/2000/svg" version="1.1" width="500px" height="500px" style="shape-rendering:geometricPrecision; text-rendering:geometricPrecision; image-rendering:optimizeQuality; fill-rule:evenodd; clip-rule:evenodd" xmlns:xlink="http://www.w3.org/1999/xlink">
<g><path style="opacity:0.969" fill="#94d4df" d="M 280.5,87.5 C 272.384,87.4486 264.051,87.6153 255.5,88C 251.38,88.8622 247.38,90.0289 243.5,91.5C 246.06,88.4625 249.393,86.6292 253.5,86C 262.651,84.991 271.651,85.491 280.5,87.5 Z"/></g>
<g><path style="opacity:1" fill="#ece6ed" d="M 216.5,99.5 C 216.833,100.167 217.167,100.833 217.5,101.5C 209.145,102.726 200.812,104.059 192.5,105.5C 192.5,105.167 192.5,104.833 192.5,104.5C 198.524,93.3847 206.524,91.718 216.5,99.5 Z"/></g>
<g><path style="opacity:1" fill="#eadee7" d="M 186.5,105.5 C 182.154,105.666 177.821,105.499 173.5,105C 171.563,104.878 170.23,104.045 169.5,102.5C 176.901,95.1516 185.568,92.3183 195.5,94C 190.936,96.6381 187.936,100.471 186.5,105.5 Z"/></g>
<g><path style="opacity:0.933" fill="#9ec494" d="M 343.5,103.5 C 336.407,100.458 329.073,99.7909 321.5,101.5C 327.568,97.8455 333.901,97.6789 340.5,101C 341.942,101.377 342.942,102.21 343.5,103.5 Z"/></g>
<g><path style="opacity:1" fill="#986680" d="M 216.5,99.5 C 219.79,100.789 222.123,103.123 223.5,106.5C 218.633,108.899 213.633,110.899 208.5,112.5C 211.742,109.787 215.408,107.454 219.5,105.5C 219.006,103.974 218.339,102.641 217.5,101.5C 217.167,100.833 216.833,100.167 216.5,99.5 Z"/></g>
<g><path style="opacity:0.89" fill="#9ec490" d="M 321.5,101.5 C 318.526,104.138 315.526,106.805 312.5,109.5C 314.233,105.435 317.233,102.768 321.5,101.5 Z"/></g>
<g><path style="opacity:0.294" fill="#306b2c" d="M 340.5,105.5 C 336.143,105.586 331.81,105.92 327.5,106.5C 329.848,105.048 332.514,104.382 335.5,104.5C 337.369,104.507 339.036,104.84 340.5,105.5 Z"/></g>
<g><path style="opacity:1" fill="#3cd4e8" d="M 280.5,87.5 C 289.468,91.1772 292.635,97.8439 290,107.5C 288.833,110.333 287.667,113.167 286.5,116C 288.215,119.309 289.215,122.809 289.5,126.5C 287.883,125.411 287.05,123.744 287,121.5C 286.722,122.416 286.222,123.082 285.5,123.5C 284.601,120.605 283.267,117.938 281.5,115.5C 282.802,116.357 284.135,116.857 285.5,117C 284.803,114.841 285.137,112.674 286.5,110.5C 285.833,110.167 285.167,109.833 284.5,109.5C 285.32,107.889 286.654,107.222 288.5,107.5C 288.5,104.167 288.5,100.833 288.5,97.5C 287.07,97.4208 285.736,97.7542 284.5,98.5C 283.867,101.495 282.867,104.328 281.5,107C 279.934,107.765 278.601,107.598 277.5,106.5C 278.5,106.5 279.5,106.5 280.5,106.5C 280.433,104.599 280.767,102.766 281.5,101C 281.22,99.605 280.553,98.4383 279.5,97.5C 273.927,95.9916 268.261,94.9916 262.5,94.5C 258.511,94.1164 254.845,94.783 251.5,96.5C 246.882,99.3242 246.215,102.991 249.5,107.5C 248.25,107.423 247.417,106.756 247,105.5C 246.616,107.197 246.782,108.863 247.5,110.5C 246.057,109.665 245.057,108.332 244.5,106.5C 243.808,107.025 243.308,107.692 243,108.5C 241.106,104.432 240.273,100.098 240.5,95.5C 240.738,93.5956 241.738,92.2623 243.5,91.5C 247.38,90.0289 251.38,88.8622 255.5,88C 264.051,87.6153 272.384,87.4486 280.5,87.5 Z M 262.5,94.5 C 268.261,94.9916 273.927,95.9916 279.5,97.5C 280.553,98.4383 281.22,99.605 281.5,101C 280.767,102.766 280.433,104.599 280.5,106.5C 279.5,106.5 278.5,106.5 277.5,106.5C 268.116,102.331 258.782,102.664 249.5,107.5C 246.215,102.991 246.882,99.3242 251.5,96.5C 255.36,96.1916 259.026,95.5249 262.5,94.5 Z"/></g>
<g><path style="opacity:0.145" fill="#09576d" d="M 262.5,94.5 C 259.026,95.5249 255.36,96.1916 251.5,96.5C 254.845,94.783 258.511,94.1164 262.5,94.5 Z"/></g>
<g><path style="opacity:0.718" fill="#588f61" d="M 344.5,103.5 C 347.016,104.6 348.016,106.267 347.5,108.5C 345.22,107.864 343.22,106.864 341.5,105.5C 343.179,105.715 344.179,105.048 344.5,103.5 Z"/></g>
<g><path style="opacity:1" fill="#f58495" d="M 217.5,101.5 C 218.339,102.641 219.006,103.974 219.5,105.5C 215.408,107.454 211.742,109.787 208.5,112.5C 206.491,114.065 204.157,115.065 201.5,115.5C 200.417,115.461 199.417,115.127 198.5,114.5C 196.494,116.508 194.161,117.841 191.5,118.5C 191.372,114.119 191.705,109.785 192.5,105.5C 200.812,104.059 209.145,102.726 217.5,101.5 Z"/></g>
<g><path style="opacity:1" fill="#c78197" d="M 169.5,102.5 C 170.23,104.045 171.563,104.878 173.5,105C 177.821,105.499 182.154,105.666 186.5,105.5C 186.167,106.833 185.833,108.167 185.5,109.5C 184.549,110.919 184.216,112.585 184.5,114.5C 181.167,114.5 177.833,114.5 174.5,114.5C 170.413,114.706 166.913,113.373 164,110.5C 164.057,106.747 165.89,104.08 169.5,102.5 Z"/></g>
<g><path style="opacity:1" fill="#9ee35e" d="M 343.5,103.5 C 343.833,103.5 344.167,103.5 344.5,103.5C 344.179,105.048 343.179,105.715 341.5,105.5C 341.167,105.5 340.833,105.5 340.5,105.5C 339.036,104.84 337.369,104.507 335.5,104.5C 332.514,104.382 329.848,105.048 327.5,106.5C 323.544,108.788 320.211,111.788 317.5,115.5C 315.983,117.462 315.316,119.795 315.5,122.5C 315.507,124.369 315.84,126.036 316.5,127.5C 317.674,128.514 318.34,129.847 318.5,131.5C 319.048,133.394 320.048,135.06 321.5,136.5C 320.675,137.386 319.675,137.719 318.5,137.5C 314.252,136.064 311.585,133.064 310.5,128.5C 311.735,128.721 312.735,129.388 313.5,130.5C 314.329,125.198 314.829,119.864 315,114.5C 317.083,113.035 316.916,112.035 314.5,111.5C 312.795,112.545 311.295,113.878 310,115.5C 309.501,119.486 309.334,123.486 309.5,127.5C 308.518,124.038 308.185,120.371 308.5,116.5C 308.557,115.391 308.89,114.391 309.5,113.5C 310.906,113.027 311.573,112.027 311.5,110.5C 311.5,109.833 311.833,109.5 312.5,109.5C 315.526,106.805 318.526,104.138 321.5,101.5C 329.073,99.7909 336.407,100.458 343.5,103.5 Z"/></g>
<g><path style="opacity:1" fill="#fb8694" d="M 168.5,105.5 C 173.453,106.329 178.453,106.663 183.5,106.5C 183.5,108.833 183.5,111.167 183.5,113.5C 178.703,113.879 174.036,113.379 169.5,112C 167.316,110.102 166.983,107.936 168.5,105.5 Z"/></g>
<g><path style="opacity:1" fill="#a7c093" d="M 349.5,115.5 C 348.292,114.766 346.959,114.433 345.5,114.5C 344.653,113.034 343.32,112.2 341.5,112C 338.183,111.502 334.85,111.335 331.5,111.5C 331.783,110.711 332.283,110.044 333,109.5C 335.636,109.545 338.47,109.712 341.5,110C 345.14,110.636 347.806,112.469 349.5,115.5 Z"/></g>
<g><path style="opacity:0.22" fill="#365e31" d="M 311.5,110.5 C 311.573,112.027 310.906,113.027 309.5,113.5C 309.427,111.973 310.094,110.973 311.5,110.5 Z"/></g>
<g><path style="opacity:1" fill="#cdf27b" d="M 331.5,111.5 C 334.85,111.335 338.183,111.502 341.5,112C 343.32,112.2 344.653,113.034 345.5,114.5C 341.298,114.183 337.298,114.517 333.5,115.5C 332.833,115.5 332.167,115.5 331.5,115.5C 327.333,115.684 324.667,117.684 323.5,121.5C 323.5,121.167 323.5,120.833 323.5,120.5C 323.433,119.041 323.766,117.708 324.5,116.5C 326.167,115.5 327.5,114.167 328.5,112.5C 329.391,111.89 330.391,111.557 331.5,111.5 Z"/></g>
<g><path style="opacity:0.953" fill="#8e5d75" d="M 192.5,104.5 C 192.5,104.833 192.5,105.167 192.5,105.5C 191.705,109.785 191.372,114.119 191.5,118.5C 194.161,117.841 196.494,116.508 198.5,114.5C 199.417,115.127 200.417,115.461 201.5,115.5C 198.737,117.08 196.07,118.913 193.5,121C 192.365,121.749 191.365,121.583 190.5,120.5C 188.805,114.761 189.471,109.428 192.5,104.5 Z"/></g>
<g><path style="opacity:0.529" fill="#6e4a60" d="M 228.5,113.5 C 225.813,113.336 223.146,113.503 220.5,114C 217.439,116.035 214.105,117.201 210.5,117.5C 215.223,114.144 220.556,112.144 226.5,111.5C 227.713,111.747 228.38,112.414 228.5,113.5 Z"/></g>
<g><path style="opacity:1" fill="#f1fefc" d="M 281.5,115.5 C 283.267,117.938 284.601,120.605 285.5,123.5C 286.133,129.21 283.799,131.21 278.5,129.5C 275.712,126.09 273.045,122.59 270.5,119C 267.185,116.586 263.518,114.919 259.5,114C 267.052,110.406 274.385,110.906 281.5,115.5 Z"/></g>
<g><path style="opacity:1" fill="#8dcd62" d="M 299.5,126.5 C 298.213,123.377 297.213,120.043 296.5,116.5C 296.757,114.308 297.757,112.641 299.5,111.5C 300.496,111.586 301.329,111.252 302,110.5C 302.167,111.167 302.333,111.833 302.5,112.5C 302.275,117.592 301.275,122.259 299.5,126.5 Z"/></g>
<g><path style="opacity:0.282" fill="#223d29" d="M 328.5,112.5 C 327.5,114.167 326.167,115.5 324.5,116.5C 324.833,114.167 326.167,112.833 328.5,112.5 Z"/></g>
<g><path style="opacity:1" fill="#6dad46" d="M 331.5,115.5 C 332.167,115.5 332.833,115.5 333.5,115.5C 337.434,115.021 341.101,115.688 344.5,117.5C 347.425,121.905 347.091,125.905 343.5,129.5C 346.648,124.776 345.981,120.776 341.5,117.5C 339.034,116.366 336.367,116.199 333.5,117C 332.944,117.383 332.611,117.883 332.5,118.5C 332.167,119.5 331.5,120.167 330.5,120.5C 330.167,120.5 329.833,120.5 329.5,120.5C 329.392,118.486 330.058,116.82 331.5,115.5 Z"/></g>
<g><path style="opacity:0.016" fill="#084209" d="M 341.5,117.5 C 338.43,117.368 335.43,117.701 332.5,118.5C 332.611,117.883 332.944,117.383 333.5,117C 336.367,116.199 339.034,116.366 341.5,117.5 Z"/></g>
<g><path style="opacity:0.016" fill="#2d2a48" d="M 185.5,109.5 C 185.5,111.5 185.5,113.5 185.5,115.5C 183.801,115.34 182.134,115.506 180.5,116C 182.879,118.148 185.045,117.982 187,115.5C 187.49,116.793 187.657,118.127 187.5,119.5C 184.253,118.748 180.919,118.248 177.5,118C 177.833,117.667 178.167,117.333 178.5,117C 177.142,116.066 175.808,115.232 174.5,114.5C 177.833,114.5 181.167,114.5 184.5,114.5C 184.216,112.585 184.549,110.919 185.5,109.5 Z"/></g>
<g><path style="opacity:1" fill="#f56b81" d="M 228.5,113.5 C 229.167,113.5 229.5,113.833 229.5,114.5C 231.282,122.632 231.949,130.965 231.5,139.5C 229.265,139.795 227.265,139.461 225.5,138.5C 227.167,138.5 228.833,138.5 230.5,138.5C 230.666,133.489 230.499,128.489 230,123.5C 229.781,124.938 229.281,126.271 228.5,127.5C 226.46,124.395 223.626,122.395 220,121.5C 216.049,122.231 212.049,122.898 208,123.5C 206.287,124.137 206.121,125.137 207.5,126.5C 206.092,127.243 204.759,128.077 203.5,129C 206.266,130.371 208.599,132.204 210.5,134.5C 208.5,134.5 206.5,134.5 204.5,134.5C 201.55,133.692 198.883,132.358 196.5,130.5C 195.223,126.403 196.89,124.069 201.5,123.5C 202.425,122.643 203.092,121.643 203.5,120.5C 203.833,120.5 204.167,120.5 204.5,120.5C 206.967,120.245 208.967,119.245 210.5,117.5C 214.105,117.201 217.439,116.035 220.5,114C 223.146,113.503 225.813,113.336 228.5,113.5 Z"/></g>
<g><path style="opacity:1" fill="#9bf346" d="M 310.5,128.5 C 310.5,127.833 310.167,127.5 309.5,127.5C 309.334,123.486 309.501,119.486 310,115.5C 311.295,113.878 312.795,112.545 314.5,111.5C 316.916,112.035 317.083,113.035 315,114.5C 314.829,119.864 314.329,125.198 313.5,130.5C 312.735,129.388 311.735,128.721 310.5,128.5 Z"/></g>
<g><path style="opacity:0.376" fill="#57354a" d="M 210.5,117.5 C 208.967,119.245 206.967,120.245 204.5,120.5C 206.033,118.755 208.033,117.755 210.5,117.5 Z"/></g>
<g><path style="opacity:1" fill="#3fe5f5" d="M 281.5,115.5 C 274.385,110.906 267.052,110.406 259.5,114C 263.518,114.919 267.185,116.586 270.5,119C 273.045,122.59 275.712,126.09 278.5,129.5C 283.799,131.21 286.133,129.21 285.5,123.5C 286.222,123.082 286.722,122.416 287,121.5C 287.05,123.744 287.883,125.411 289.5,126.5C 290.477,129.287 290.81,132.287 290.5,135.5C 288.708,135.366 287.042,135.699 285.5,136.5C 272.031,138.68 261.197,134.346 253,123.5C 251.062,119.178 249.229,114.845 247.5,110.5C 246.782,108.863 246.616,107.197 247,105.5C 247.417,106.756 248.25,107.423 249.5,107.5C 258.782,102.664 268.116,102.331 277.5,106.5C 278.601,107.598 279.934,107.765 281.5,107C 282.867,104.328 283.867,101.495 284.5,98.5C 285.736,97.7542 287.07,97.4208 288.5,97.5C 288.5,100.833 288.5,104.167 288.5,107.5C 286.654,107.222 285.32,107.889 284.5,109.5C 285.167,109.833 285.833,110.167 286.5,110.5C 285.137,112.674 284.803,114.841 285.5,117C 284.135,116.857 282.802,116.357 281.5,115.5 Z"/></g>
<g><path style="opacity:0.443" fill="#4a3149" d="M 185.5,124.5 C 185.5,123.5 185.5,122.5 185.5,121.5C 182.287,121.81 179.287,121.477 176.5,120.5C 179.652,119.761 182.985,119.761 186.5,120.5C 186.768,122.099 186.434,123.432 185.5,124.5 Z"/></g>
<g><path style="opacity:0.004" fill="#09001a" d="M 187.5,119.5 C 188.525,119.897 188.692,120.563 188,121.5C 187.536,120.906 187.369,120.239 187.5,119.5 Z"/></g>
<g><path style="opacity:1" fill="#a86178" d="M 176.5,120.5 C 179.287,121.477 182.287,121.81 185.5,121.5C 185.5,122.5 185.5,123.5 185.5,124.5C 183.784,126.025 181.784,127.025 179.5,127.5C 179.712,125.616 180.712,124.283 182.5,123.5C 175.066,120.801 167.399,119.134 159.5,118.5C 159.737,119.791 159.404,120.791 158.5,121.5C 158.5,120.167 158.5,118.833 158.5,117.5C 158.415,116.005 159.081,115.005 160.5,114.5C 165.604,117.336 170.937,119.336 176.5,120.5 Z"/></g>
<g><path style="opacity:0.086" fill="#084216" d="M 329.5,120.5 C 329.833,120.5 330.167,120.5 330.5,120.5C 330.401,123.237 330.735,125.904 331.5,128.5C 330.883,128.389 330.383,128.056 330,127.5C 329.503,125.19 329.337,122.857 329.5,120.5 Z"/></g>
<g><path style="opacity:0.004" fill="#141438" d="M 195.5,124.5 C 194.224,123.614 194.224,122.614 195.5,121.5C 196.087,122.233 196.087,123.233 195.5,124.5 Z"/></g>
<g><path style="opacity:0.149" fill="#2c6631" d="M 317.5,115.5 C 316.728,119.452 316.395,123.452 316.5,127.5C 315.84,126.036 315.507,124.369 315.5,122.5C 315.316,119.795 315.983,117.462 317.5,115.5 Z"/></g>
<g><path style="opacity:0.847" fill="#63935b" d="M 351.5,118.5 C 352.289,118.783 352.956,119.283 353.5,120C 352.167,122 352.167,124 353.5,126C 352.915,127.302 352.249,128.469 351.5,129.5C 351.5,125.833 351.5,122.167 351.5,118.5 Z"/></g>
<g><path style="opacity:1" fill="#8ee252" d="M 331.5,115.5 C 330.058,116.82 329.392,118.486 329.5,120.5C 329.337,122.857 329.503,125.19 330,127.5C 330.383,128.056 330.883,128.389 331.5,128.5C 331.5,128.833 331.5,129.167 331.5,129.5C 331.5,130.5 331.5,131.5 331.5,132.5C 330.5,132.5 329.5,132.5 328.5,132.5C 327.508,132.672 326.842,132.338 326.5,131.5C 325.024,128.339 324.024,125.005 323.5,121.5C 324.667,117.684 327.333,115.684 331.5,115.5 Z"/></g>
<g><path style="opacity:0.859" fill="#623e5a" d="M 203.5,120.5 C 203.092,121.643 202.425,122.643 201.5,123.5C 196.89,124.069 195.223,126.403 196.5,130.5C 193.553,128.696 193.219,126.696 195.5,124.5C 198.193,123.153 200.86,121.82 203.5,120.5 Z"/></g>
<g><path style="opacity:0.918" fill="#834766" d="M 229.5,114.5 C 233.899,122.55 234.565,130.883 231.5,139.5C 231.949,130.965 231.282,122.632 229.5,114.5 Z"/></g>
<g><path style="opacity:1" fill="#4a8445" d="M 323.5,120.5 C 323.5,120.833 323.5,121.167 323.5,121.5C 324.024,125.005 325.024,128.339 326.5,131.5C 323.846,129.54 322.179,126.873 321.5,123.5C 321.942,122.261 322.609,121.261 323.5,120.5 Z"/></g>
<g><path style="opacity:1" fill="#f66882" d="M 179.5,127.5 C 179.158,128.338 178.492,128.672 177.5,128.5C 172.864,130.147 168.197,131.813 163.5,133.5C 162.873,134.417 162.539,135.417 162.5,136.5C 162.027,137.906 161.027,138.573 159.5,138.5C 158.504,138.586 157.671,138.252 157,137.5C 156.833,135.333 156.667,133.167 156.5,131C 156.328,127.523 156.994,124.356 158.5,121.5C 159.404,120.791 159.737,119.791 159.5,118.5C 167.399,119.134 175.066,120.801 182.5,123.5C 180.712,124.283 179.712,125.616 179.5,127.5 Z"/></g>
<g><path style="opacity:1" fill="#fc5d74" d="M 225.5,138.5 C 220.457,137.322 215.457,135.989 210.5,134.5C 208.599,132.204 206.266,130.371 203.5,129C 204.759,128.077 206.092,127.243 207.5,126.5C 206.121,125.137 206.287,124.137 208,123.5C 212.049,122.898 216.049,122.231 220,121.5C 223.626,122.395 226.46,124.395 228.5,127.5C 229.281,126.271 229.781,124.938 230,123.5C 230.499,128.489 230.666,133.489 230.5,138.5C 228.833,138.5 227.167,138.5 225.5,138.5 Z"/></g>
<g><path style="opacity:0.847" fill="#568b64" d="M 299.5,126.5 C 301.275,122.259 302.275,117.592 302.5,112.5C 302.333,111.833 302.167,111.167 302,110.5C 301.329,111.252 300.496,111.586 299.5,111.5C 300.574,110.115 301.907,108.949 303.5,108C 304.635,107.251 305.635,107.417 306.5,108.5C 301.571,116.938 301.237,125.605 305.5,134.5C 304.132,135.594 302.965,135.26 302,133.5C 301.153,131.146 300.32,128.812 299.5,126.5 Z"/></g>
<g><path style="opacity:1" fill="#a5516c" d="M 177.5,128.5 C 175.073,130.558 172.407,132.391 169.5,134C 167.35,135.411 165.016,136.245 162.5,136.5C 162.539,135.417 162.873,134.417 163.5,133.5C 168.197,131.813 172.864,130.147 177.5,128.5 Z"/></g>
<g><path style="opacity:0.004" fill="#100020" d="M 183.5,130.5 C 182.761,130.631 182.094,130.464 181.5,130C 182.437,129.308 183.103,129.475 183.5,130.5 Z"/></g>
<g><path style="opacity:1" fill="#12b2db" d="M 240.5,95.5 C 240.273,100.098 241.106,104.432 243,108.5C 243.308,107.692 243.808,107.025 244.5,106.5C 245.057,108.332 246.057,109.665 247.5,110.5C 249.229,114.845 251.062,119.178 253,123.5C 261.197,134.346 272.031,138.68 285.5,136.5C 281.5,136.5 277.5,136.5 273.5,136.5C 266.3,136.822 259.3,136.155 252.5,134.5C 252.579,133.07 252.246,131.736 251.5,130.5C 248.32,129.101 245.153,128.768 242,129.5C 241.503,127.19 241.337,124.857 241.5,122.5C 242.059,120.321 242.726,118.154 243.5,116C 241.035,111.271 239.368,106.271 238.5,101C 238.701,98.8886 239.367,97.0552 240.5,95.5 Z"/></g>
<g><path style="opacity:0.184" fill="#4e274a" d="M 158.5,117.5 C 158.5,118.833 158.5,120.167 158.5,121.5C 156.994,124.356 156.328,127.523 156.5,131C 156.667,133.167 156.833,135.333 157,137.5C 157.671,138.252 158.504,138.586 159.5,138.5C 158.458,139.791 157.292,139.791 156,138.5C 155.333,133.5 155.333,128.5 156,123.5C 156.566,121.277 157.4,119.277 158.5,117.5 Z"/></g>
<g><path style="opacity:1" fill="#613958" d="M 187.5,135.5 C 187.5,134.167 187.5,132.833 187.5,131.5C 186.167,131.5 184.833,131.5 183.5,131.5C 183.5,131.167 183.5,130.833 183.5,130.5C 185.113,130.056 186.28,129.056 187,127.5C 189.9,129.943 190.067,132.61 187.5,135.5 Z"/></g>
<g><path style="opacity:1" fill="#549745" d="M 308.5,116.5 C 308.185,120.371 308.518,124.038 309.5,127.5C 310.167,127.5 310.5,127.833 310.5,128.5C 311.585,133.064 314.252,136.064 318.5,137.5C 312.795,137.308 309.295,134.308 308,128.5C 307.188,124.311 307.355,120.311 308.5,116.5 Z"/></g>
<g><path style="opacity:1" fill="#98e64b" d="M 333.5,115.5 C 337.298,114.517 341.298,114.183 345.5,114.5C 346.959,114.433 348.292,114.766 349.5,115.5C 350.906,115.973 351.573,116.973 351.5,118.5C 351.5,122.167 351.5,125.833 351.5,129.5C 350.094,129.973 349.427,130.973 349.5,132.5C 349.167,133.5 348.5,134.167 347.5,134.5C 346.053,135.134 345.387,136.301 345.5,138C 345.387,139.699 346.053,140.866 347.5,141.5C 347.751,143.17 348.418,144.67 349.5,146C 353.833,146.333 358.167,146.667 362.5,147C 363.423,149.041 363.756,151.208 363.5,153.5C 359.833,153.5 356.167,153.5 352.5,153.5C 350.326,153.25 348.659,152.25 347.5,150.5C 346.002,147.483 343.669,145.483 340.5,144.5C 340.5,144.167 340.5,143.833 340.5,143.5C 339.88,139.698 340.714,136.365 343,133.5C 343.49,132.207 343.657,130.873 343.5,129.5C 347.091,125.905 347.425,121.905 344.5,117.5C 341.101,115.688 337.434,115.021 333.5,115.5 Z"/></g>
<g><path style="opacity:0.024" fill="#124718" d="M 351.5,129.5 C 351.573,131.027 350.906,132.027 349.5,132.5C 349.427,130.973 350.094,129.973 351.5,129.5 Z"/></g>
<g><path style="opacity:1" fill="#0c8bbf" d="M 241.5,122.5 C 241.337,124.857 241.503,127.19 242,129.5C 245.153,128.768 248.32,129.101 251.5,130.5C 252.246,131.736 252.579,133.07 252.5,134.5C 259.3,136.155 266.3,136.822 273.5,136.5C 265.486,138.108 257.486,140.274 249.5,143C 245.013,143.353 242.18,141.186 241,136.5C 240.185,131.648 240.352,126.981 241.5,122.5 Z"/></g>
<g><path style="opacity:0.114" fill="#291728" d="M 183.5,131.5 C 182.089,133.539 180.089,134.539 177.5,134.5C 177.908,133.357 178.575,132.357 179.5,131.5C 180.726,132.363 182.06,132.363 183.5,131.5 Z"/></g>
<g><path style="opacity:0.616" fill="#376f42" d="M 331.5,129.5 C 333.104,130.287 333.771,131.62 333.5,133.5C 331.585,133.784 329.919,133.451 328.5,132.5C 329.5,132.5 330.5,132.5 331.5,132.5C 331.5,131.5 331.5,130.5 331.5,129.5 Z"/></g>
<g><path style="opacity:1" fill="#994665" d="M 204.5,134.5 C 206.5,134.5 208.5,134.5 210.5,134.5C 215.457,135.989 220.457,137.322 225.5,138.5C 227.265,139.461 229.265,139.795 231.5,139.5C 229.372,140.629 227.039,140.796 224.5,140C 217.544,138.764 210.878,136.931 204.5,134.5 Z"/></g>
<g><path style="opacity:0.004" fill="#000000" d="M 188.5,137.5 C 189.833,138.167 189.833,138.167 188.5,137.5 Z"/></g>
<g><path style="opacity:0.843" fill="#559541" d="M 343.5,129.5 C 343.657,130.873 343.49,132.207 343,133.5C 340.714,136.365 339.88,139.698 340.5,143.5C 338.606,138.204 339.606,133.538 343.5,129.5 Z"/></g>
<g><path style="opacity:1" fill="#d3eff1" d="M 402.5,141.5 C 402.828,146.875 402.495,152.208 401.5,157.5C 400.201,156.91 399.368,155.91 399,154.5C 398.821,150.975 398.321,147.641 397.5,144.5C 396.547,142.39 394.881,141.223 392.5,141C 384.173,140.5 375.84,140.334 367.5,140.5C 367.178,138.278 367.845,136.444 369.5,135C 378.368,132.058 387.368,131.725 396.5,134C 399.857,135.512 401.857,138.012 402.5,141.5 Z"/></g>
<g><path style="opacity:1" fill="#f75270" d="M 183.5,131.5 C 184.833,131.5 186.167,131.5 187.5,131.5C 187.5,132.833 187.5,134.167 187.5,135.5C 187.672,136.492 187.338,137.158 186.5,137.5C 185.504,137.414 184.671,137.748 184,138.5C 183.802,140.382 183.302,142.048 182.5,143.5C 178.637,143.538 174.804,143.205 171,142.5C 168.558,142.482 166.392,143.149 164.5,144.5C 164.953,143.542 165.619,142.708 166.5,142C 171.279,140.957 174.946,138.457 177.5,134.5C 180.089,134.539 182.089,133.539 183.5,131.5 Z"/></g>
<g><path style="opacity:0.816" fill="#3d6855" d="M 318.5,131.5 C 322.759,135.258 327.426,138.425 332.5,141C 327.576,140.745 322.909,139.579 318.5,137.5C 319.675,137.719 320.675,137.386 321.5,136.5C 320.048,135.06 319.048,133.394 318.5,131.5 Z"/></g>
<g><path style="opacity:0.247" fill="#2c5b2f" d="M 347.5,134.5 C 346.167,136.833 346.167,139.167 347.5,141.5C 346.053,140.866 345.387,139.699 345.5,138C 345.387,136.301 346.053,135.134 347.5,134.5 Z"/></g>
<g><path style="opacity:1" fill="#9f3e63" d="M 186.5,137.5 C 185.739,141.784 184.405,145.784 182.5,149.5C 182.5,147.5 182.5,145.5 182.5,143.5C 183.302,142.048 183.802,140.382 184,138.5C 184.671,137.748 185.504,137.414 186.5,137.5 Z"/></g>
<g><path style="opacity:0.106" fill="#3b1e3a" d="M 217.5,143.5 C 220.813,144.045 224.146,144.545 227.5,145C 228.801,146.616 228.801,148.116 227.5,149.5C 227.67,148.178 227.337,147.011 226.5,146C 223.149,145.943 220.149,145.109 217.5,143.5 Z"/></g>
<g><path style="opacity:1" fill="#8c335d" d="M 177.5,134.5 C 174.946,138.457 171.279,140.957 166.5,142C 165.619,142.708 164.953,143.542 164.5,144.5C 162.025,145.687 161.025,147.687 161.5,150.5C 159.762,148.881 159.262,146.881 160,144.5C 165.807,141.017 171.64,137.683 177.5,134.5 Z"/></g>
<g><path style="opacity:1" fill="#f83762" d="M 202.5,139.5 C 202.825,141.132 203.825,142.132 205.5,142.5C 212.218,143.896 218.885,145.23 225.5,146.5C 225.5,147.833 225.5,149.167 225.5,150.5C 225.5,151.167 225.167,151.5 224.5,151.5C 212.833,151.5 201.167,151.5 189.5,151.5C 190.236,146.629 191.57,141.962 193.5,137.5C 196.436,138.406 199.436,139.072 202.5,139.5 Z"/></g>
<g><path style="opacity:1" fill="#b13d65" d="M 202.5,139.5 C 207.712,140.467 212.712,141.8 217.5,143.5C 220.149,145.109 223.149,145.943 226.5,146C 227.337,147.011 227.67,148.178 227.5,149.5C 227.5,150.167 227.167,150.5 226.5,150.5C 226.167,150.5 225.833,150.5 225.5,150.5C 225.5,149.167 225.5,147.833 225.5,146.5C 218.885,145.23 212.218,143.896 205.5,142.5C 203.825,142.132 202.825,141.132 202.5,139.5 Z"/></g>
<g><path style="opacity:0.639" fill="#90a0aa" d="M 309.5,147.5 C 297.794,146.2 285.794,146.2 273.5,147.5C 279.427,145.993 285.594,145.326 292,145.5C 298.083,145.299 303.916,145.966 309.5,147.5 Z"/></g>
<g><path style="opacity:1" fill="#ee285b" d="M 182.5,143.5 C 182.5,145.5 182.5,147.5 182.5,149.5C 175.708,151.337 168.708,152.004 161.5,151.5C 161.5,151.167 161.5,150.833 161.5,150.5C 161.025,147.687 162.025,145.687 164.5,144.5C 166.392,143.149 168.558,142.482 171,142.5C 174.804,143.205 178.637,143.538 182.5,143.5 Z"/></g>
<g><path style="opacity:1" fill="#f4f8f5" d="M 309.5,147.5 C 314.12,147.74 318.453,148.74 322.5,150.5C 324.846,152.127 327.012,154.127 329,156.5C 330,153.833 331,153.833 332,156.5C 332.333,156.167 332.667,155.833 333,155.5C 334.401,157.192 336.234,157.859 338.5,157.5C 350.287,163.28 359.953,171.614 367.5,182.5C 367.674,184.861 368.007,187.194 368.5,189.5C 369.5,189.5 370.5,189.5 371.5,189.5C 371.916,192.406 372.582,195.239 373.5,198C 373.212,200.187 372.878,202.354 372.5,204.5C 371.069,203.918 369.736,203.085 368.5,202C 367.419,199.315 365.752,197.149 363.5,195.5C 362.071,192.692 361.405,189.692 361.5,186.5C 356.844,186.196 355.511,183.863 357.5,179.5C 357.297,177.792 356.464,176.459 355,175.5C 354.493,176.996 354.993,178.163 356.5,179C 355.391,179.638 354.225,180.138 353,180.5C 350.941,178.93 348.774,177.597 346.5,176.5C 344.668,175.752 343.001,174.752 341.5,173.5C 333.149,167.492 324.149,162.825 314.5,159.5C 311.797,158.037 308.797,157.204 305.5,157C 296.167,156.333 286.833,156.333 277.5,157C 275.498,158.019 273.498,158.852 271.5,159.5C 262.151,161.053 253.818,164.72 246.5,170.5C 243.561,171.456 241.228,173.123 239.5,175.5C 236.705,178.083 233.705,180.417 230.5,182.5C 229.799,179.437 229.132,176.27 228.5,173C 230.493,170.253 232.993,168.086 236,166.5C 236.41,165.099 236.91,163.766 237.5,162.5C 238.716,160.549 240.382,159.049 242.5,158C 252.221,152.593 262.554,149.093 273.5,147.5C 285.794,146.2 297.794,146.2 309.5,147.5 Z"/></g>
<g><path style="opacity:1" fill="#54994e" d="M 340.5,144.5 C 343.669,145.483 346.002,147.483 347.5,150.5C 344.573,149.243 342.239,147.243 340.5,144.5 Z"/></g>
<g><path style="opacity:1" fill="#4fe3f4" d="M 142.5,145.5 C 142.987,146.473 143.487,147.473 144,148.5C 145.011,147.663 146.178,147.33 147.5,147.5C 147.5,148.5 147.5,149.5 147.5,150.5C 145.801,150.34 144.134,150.506 142.5,151C 139.609,152.792 136.609,154.292 133.5,155.5C 129.61,162.941 125.443,170.275 121,177.5C 120.347,171.138 120.513,164.805 121.5,158.5C 125.696,149.637 132.696,145.304 142.5,145.5 Z"/></g>
<g><path style="opacity:0.796" fill="#702852" d="M 182.5,149.5 C 182.489,151.017 181.823,152.184 180.5,153C 174.833,153.667 169.167,153.667 163.5,153C 162.584,152.722 161.918,152.222 161.5,151.5C 168.708,152.004 175.708,151.337 182.5,149.5 Z"/></g>
<g><path style="opacity:0.814" fill="#993b60" d="M 202.5,139.5 C 199.436,139.072 196.436,138.406 193.5,137.5C 191.57,141.962 190.236,146.629 189.5,151.5C 201.167,151.5 212.833,151.5 224.5,151.5C 212.345,152.495 200.011,152.829 187.5,152.5C 187.5,151.5 187.5,150.5 187.5,149.5C 189.368,144.562 191.035,139.562 192.5,134.5C 196.302,135.32 199.636,136.986 202.5,139.5 Z"/></g>
<g><path style="opacity:0.114" fill="#3e1234" d="M 187.5,149.5 C 187.5,150.5 187.5,151.5 187.5,152.5C 200.011,152.829 212.345,152.495 224.5,151.5C 225.167,151.5 225.5,151.167 225.5,150.5C 225.833,150.5 226.167,150.5 226.5,150.5C 226.586,151.496 226.252,152.329 225.5,153C 212.504,153.5 199.504,153.667 186.5,153.5C 186.232,151.901 186.566,150.568 187.5,149.5 Z"/></g>
<g><path style="opacity:0.998" fill="#b6c2cc" d="M 322.5,150.5 C 328.276,152.082 333.61,154.415 338.5,157.5C 336.234,157.859 334.401,157.192 333,155.5C 332.667,155.833 332.333,156.167 332,156.5C 331,153.833 330,153.833 329,156.5C 327.012,154.127 324.846,152.127 322.5,150.5 Z"/></g>
<g><path style="opacity:1" fill="#6fb14c" d="M 347.5,141.5 C 351.955,144.564 356.788,145.23 362,143.5C 365.151,146.717 366.318,150.384 365.5,154.5C 360.881,157.171 356.547,156.837 352.5,153.5C 356.167,153.5 359.833,153.5 363.5,153.5C 363.756,151.208 363.423,149.041 362.5,147C 358.167,146.667 353.833,146.333 349.5,146C 348.418,144.67 347.751,143.17 347.5,141.5 Z"/></g>
<g><path style="opacity:1" fill="#1f8fad" d="M 142.5,145.5 C 147.369,146.232 151.369,148.399 154.5,152C 153.892,152.87 153.059,153.37 152,153.5C 146.369,152.372 141.203,153.538 136.5,157C 131.833,164.333 127.167,171.667 122.5,179C 121.551,179.617 120.718,179.451 120,178.5C 119.833,175.667 119.667,172.833 119.5,170C 119.286,165.867 119.952,162.034 121.5,158.5C 120.513,164.805 120.347,171.138 121,177.5C 125.443,170.275 129.61,162.941 133.5,155.5C 136.609,154.292 139.609,152.792 142.5,151C 144.134,150.506 145.801,150.34 147.5,150.5C 147.5,149.5 147.5,148.5 147.5,147.5C 146.178,147.33 145.011,147.663 144,148.5C 143.487,147.473 142.987,146.473 142.5,145.5 Z"/></g>
<g><path style="opacity:1" fill="#ebfdc8" d="M 314.5,159.5 C 300.159,156.916 285.825,156.916 271.5,159.5C 273.498,158.852 275.498,158.019 277.5,157C 286.833,156.333 296.167,156.333 305.5,157C 308.797,157.204 311.797,158.037 314.5,159.5 Z"/></g>
<g><path style="opacity:1" fill="#1ec2e6" d="M 367.5,140.5 C 375.84,140.334 384.173,140.5 392.5,141C 394.881,141.223 396.547,142.39 397.5,144.5C 397.5,157.5 397.5,170.5 397.5,183.5C 396.677,180.023 396.177,176.356 396,172.5C 395.626,173.416 395.126,174.25 394.5,175C 390.87,175.469 387.87,176.969 385.5,179.5C 384.914,179.291 384.414,178.957 384,178.5C 383.831,170.812 383.331,163.145 382.5,155.5C 381.585,156.328 380.919,157.328 380.5,158.5C 382.062,160.901 381.729,162.901 379.5,164.5C 377.912,162.887 376.912,160.887 376.5,158.5C 379.676,153.812 379.009,152.812 374.5,155.5C 373.135,158.687 372.301,162.02 372,165.5C 371.047,162.568 370.547,159.568 370.5,156.5C 372.491,153.863 374.491,151.196 376.5,148.5C 373.959,147.063 371.292,145.897 368.5,145C 366.935,143.494 366.601,141.994 367.5,140.5 Z"/></g>
<g><path style="opacity:1" fill="#bdfc5d" d="M 314.5,159.5 C 324.149,162.825 333.149,167.492 341.5,173.5C 339.712,173.785 338.045,173.452 336.5,172.5C 332.891,170.845 329.391,168.845 326,166.5C 323.863,165.923 321.696,165.59 319.5,165.5C 319.203,169.767 319.536,173.934 320.5,178C 314.843,177.752 309.177,177.085 303.5,176C 294.314,175.265 285.148,175.431 276,176.5C 273.443,176.419 271.61,175.253 270.5,173C 273.917,170.164 274.917,166.664 273.5,162.5C 268.249,163.585 262.916,164.752 257.5,166C 254.761,167.026 252.428,168.526 250.5,170.5C 249.167,170.5 247.833,170.5 246.5,170.5C 253.818,164.72 262.151,161.053 271.5,159.5C 285.825,156.916 300.159,156.916 314.5,159.5 Z"/></g>
<g><path style="opacity:0.836" fill="#cbd9e5" d="M 204.5,163.5 C 184.454,163.19 164.454,163.524 144.5,164.5C 144.611,163.883 144.944,163.383 145.5,163C 165.338,162.171 185.004,162.338 204.5,163.5 Z"/></g>
<g><path style="opacity:1" fill="#f4f8f7" d="M 204.5,163.5 C 204.5,167.167 204.5,170.833 204.5,174.5C 202.167,174.5 199.833,174.5 197.5,174.5C 197.074,172.715 195.908,171.715 194,171.5C 179.855,172.291 165.688,172.791 151.5,173C 149.343,174.981 147.676,177.314 146.5,180C 145.552,180.483 144.552,180.649 143.5,180.5C 143.5,182.167 143.5,183.833 143.5,185.5C 140.5,190.833 137.5,196.167 134.5,201.5C 133.833,201.5 133.5,201.833 133.5,202.5C 130.2,207.477 126.867,212.477 123.5,217.5C 122.026,218.436 121.026,219.77 120.5,221.5C 119.069,221.119 118.236,220.119 118,218.5C 117.333,213.167 117.333,207.833 118,202.5C 126.696,189.654 135.53,176.987 144.5,164.5C 164.454,163.524 184.454,163.19 204.5,163.5 Z"/></g>
<g><path style="opacity:1" fill="#109ccb" d="M 397.5,183.5 C 397.334,189.176 397.501,194.843 398,200.5C 398.333,200.833 398.667,201.167 399,201.5C 399.206,199.064 400.373,197.398 402.5,196.5C 400.785,200.931 398.785,205.265 396.5,209.5C 395.675,210.386 394.675,210.719 393.5,210.5C 389.31,194.116 381.477,179.782 370,167.5C 369.19,163.642 369.357,159.976 370.5,156.5C 370.547,159.568 371.047,162.568 372,165.5C 372.301,162.02 373.135,158.687 374.5,155.5C 379.009,152.812 379.676,153.812 376.5,158.5C 376.912,160.887 377.912,162.887 379.5,164.5C 381.729,162.901 382.062,160.901 380.5,158.5C 380.919,157.328 381.585,156.328 382.5,155.5C 383.331,163.145 383.831,170.812 384,178.5C 384.414,178.957 384.914,179.291 385.5,179.5C 387.87,176.969 390.87,175.469 394.5,175C 395.126,174.25 395.626,173.416 396,172.5C 396.177,176.356 396.677,180.023 397.5,183.5 Z"/></g>
<g><path style="opacity:1" fill="#f4fee0" d="M 197.5,174.5 C 196.833,174.5 196.167,174.5 195.5,174.5C 180.818,174.167 166.152,174.501 151.5,175.5C 149.384,177.4 148.051,179.733 147.5,182.5C 146.167,183.5 144.833,184.5 143.5,185.5C 143.5,183.833 143.5,182.167 143.5,180.5C 144.552,180.649 145.552,180.483 146.5,180C 147.676,177.314 149.343,174.981 151.5,173C 165.688,172.791 179.855,172.291 194,171.5C 195.908,171.715 197.074,172.715 197.5,174.5 Z"/></g>
<g><path style="opacity:1" fill="#b1f574" d="M 195.5,174.5 C 196.466,182.08 196.799,189.747 196.5,197.5C 195.5,197.5 194.5,197.5 193.5,197.5C 194.462,190.588 194.795,183.588 194.5,176.5C 184.167,176.5 173.833,176.5 163.5,176.5C 159.818,176.335 156.152,176.501 152.5,177C 150.7,178.812 149.033,180.645 147.5,182.5C 148.051,179.733 149.384,177.4 151.5,175.5C 166.152,174.501 180.818,174.167 195.5,174.5 Z"/></g>
<g><path style="opacity:1" fill="#abfe4f" d="M 163.5,176.5 C 173.833,176.5 184.167,176.5 194.5,176.5C 194.795,183.588 194.462,190.588 193.5,197.5C 192.833,197.5 192.167,197.5 191.5,197.5C 190.127,197.343 188.793,197.51 187.5,198C 182.757,201.038 177.757,203.538 172.5,205.5C 173.348,203.907 174.681,202.74 176.5,202C 173.107,200.832 170.441,201.666 168.5,204.5C 167.548,202.955 167.215,201.288 167.5,199.5C 170.571,200.075 172.571,198.909 173.5,196C 172.43,194.291 171.097,192.791 169.5,191.5C 170.811,190.742 171.311,189.742 171,188.5C 167.394,186.397 164.227,183.731 161.5,180.5C 162.18,179.14 162.847,177.807 163.5,176.5 Z"/></g>
<g><path style="opacity:1" fill="#e9fade" d="M 363.5,195.5 C 358.233,188.894 352.566,182.561 346.5,176.5C 348.774,177.597 350.941,178.93 353,180.5C 354.225,180.138 355.391,179.638 356.5,179C 354.993,178.163 354.493,176.996 355,175.5C 356.464,176.459 357.297,177.792 357.5,179.5C 355.511,183.863 356.844,186.196 361.5,186.5C 361.405,189.692 362.071,192.692 363.5,195.5 Z"/></g>
<g><path style="opacity:1" fill="#d1dfe3" d="M 237.5,162.5 C 236.91,163.766 236.41,165.099 236,166.5C 232.993,168.086 230.493,170.253 228.5,173C 229.132,176.27 229.799,179.437 230.5,182.5C 229.585,184.754 228.252,186.754 226.5,188.5C 223.801,190.828 221.301,193.494 219,196.5C 218.517,197.448 218.351,198.448 218.5,199.5C 218.167,199.5 217.833,199.5 217.5,199.5C 217.334,192.825 217.5,186.158 218,179.5C 223.8,172.856 230.3,167.189 237.5,162.5 Z"/></g>
<g><path style="opacity:1" fill="#7ce831" d="M 246.5,170.5 C 247.833,170.5 249.167,170.5 250.5,170.5C 252.271,171.765 253.938,173.265 255.5,175C 256.573,176.416 256.573,177.75 255.5,179C 257.5,180 259.5,181 261.5,182C 259.405,182.556 259.238,183.056 261,183.5C 266.574,182.9 271.907,181.567 277,179.5C 284.933,181.906 293.266,183.573 302,184.5C 303.319,182.75 303.819,180.75 303.5,178.5C 308.912,178.791 314.245,179.624 319.5,181C 320.711,182.113 320.711,183.28 319.5,184.5C 322.028,185.816 322.028,186.983 319.5,188C 316.773,188.818 314.106,188.652 311.5,187.5C 311.709,186.914 312.043,186.414 312.5,186C 308.428,185.044 304.595,185.544 301,187.5C 298.54,186.112 295.873,185.446 293,185.5C 289.229,186.627 285.395,187.294 281.5,187.5C 281.5,186.5 281.5,185.5 281.5,184.5C 285.36,184.097 285.193,183.764 281,183.5C 276.87,183.299 273.703,184.799 271.5,188C 272.833,188.667 274.167,189.333 275.5,190C 273.45,190.416 272.116,191.583 271.5,193.5C 267.258,195.917 262.591,197.584 257.5,198.5C 258.246,199.736 258.579,201.07 258.5,202.5C 255.784,202.678 253.117,203.178 250.5,204C 251.711,204.893 251.711,205.726 250.5,206.5C 249.702,206.043 249.369,205.376 249.5,204.5C 249.869,202.559 250.536,200.725 251.5,199C 247.834,198.171 244.834,196.338 242.5,193.5C 241.549,194.326 240.549,194.492 239.5,194C 238.594,191.553 237.761,189.053 237,186.5C 235.348,185.783 233.848,185.45 232.5,185.5C 234.226,183.772 235.559,181.772 236.5,179.5C 237.325,178.614 238.325,178.281 239.5,178.5C 239.5,177.5 239.5,176.5 239.5,175.5C 241.228,173.123 243.561,171.456 246.5,170.5 Z"/></g>
<g><path style="opacity:1" fill="#84ec35" d="M 341.5,173.5 C 341.539,174.583 341.873,175.583 342.5,176.5C 347.133,180.297 351.633,184.297 356,188.5C 356.483,189.448 356.649,190.448 356.5,191.5C 354.408,191.439 352.908,190.439 352,188.5C 350.256,189.649 350.089,190.983 351.5,192.5C 348.836,193.498 346.503,194.998 344.5,197C 339.038,199.282 333.372,200.782 327.5,201.5C 327.341,198.845 326.341,196.512 324.5,194.5C 321.189,195.353 317.856,195.186 314.5,194C 313.833,193 313.167,192 312.5,191C 309.518,190.502 306.518,190.335 303.5,190.5C 292.6,189.768 281.933,190.768 271.5,193.5C 272.116,191.583 273.45,190.416 275.5,190C 274.167,189.333 272.833,188.667 271.5,188C 273.703,184.799 276.87,183.299 281,183.5C 285.193,183.764 285.36,184.097 281.5,184.5C 281.5,185.5 281.5,186.5 281.5,187.5C 285.395,187.294 289.229,186.627 293,185.5C 295.873,185.446 298.54,186.112 301,187.5C 304.595,185.544 308.428,185.044 312.5,186C 312.043,186.414 311.709,186.914 311.5,187.5C 314.106,188.652 316.773,188.818 319.5,188C 322.028,186.983 322.028,185.816 319.5,184.5C 320.711,183.28 320.711,182.113 319.5,181C 314.245,179.624 308.912,178.791 303.5,178.5C 303.819,180.75 303.319,182.75 302,184.5C 293.266,183.573 284.933,181.906 277,179.5C 271.907,181.567 266.574,182.9 261,183.5C 259.238,183.056 259.405,182.556 261.5,182C 259.5,181 257.5,180 255.5,179C 256.573,177.75 256.573,176.416 255.5,175C 253.938,173.265 252.271,171.765 250.5,170.5C 252.428,168.526 254.761,167.026 257.5,166C 262.916,164.752 268.249,163.585 273.5,162.5C 274.917,166.664 273.917,170.164 270.5,173C 271.61,175.253 273.443,176.419 276,176.5C 285.148,175.431 294.314,175.265 303.5,176C 309.177,177.085 314.843,177.752 320.5,178C 319.536,173.934 319.203,169.767 319.5,165.5C 321.696,165.59 323.863,165.923 326,166.5C 329.391,168.845 332.891,170.845 336.5,172.5C 338.045,173.452 339.712,173.785 341.5,173.5 Z"/></g>
<g><path style="opacity:1" fill="#43cce1" d="M 402.5,141.5 C 403.833,159.833 403.833,178.167 402.5,196.5C 400.373,197.398 399.206,199.064 399,201.5C 398.667,201.167 398.333,200.833 398,200.5C 397.501,194.843 397.334,189.176 397.5,183.5C 397.5,170.5 397.5,157.5 397.5,144.5C 398.321,147.641 398.821,150.975 399,154.5C 399.368,155.91 400.201,156.91 401.5,157.5C 402.495,152.208 402.828,146.875 402.5,141.5 Z"/></g>
<g><path style="opacity:1" fill="#a9e3a3" d="M 226.5,188.5 C 224.406,192.364 222.072,196.031 219.5,199.5C 219.167,199.5 218.833,199.5 218.5,199.5C 218.351,198.448 218.517,197.448 219,196.5C 221.301,193.494 223.801,190.828 226.5,188.5 Z"/></g>
<g><path style="opacity:1" fill="#93f941" d="M 163.5,176.5 C 162.847,177.807 162.18,179.14 161.5,180.5C 164.227,183.731 167.394,186.397 171,188.5C 171.311,189.742 170.811,190.742 169.5,191.5C 171.097,192.791 172.43,194.291 173.5,196C 172.571,198.909 170.571,200.075 167.5,199.5C 167.215,201.288 167.548,202.955 168.5,204.5C 170.441,201.666 173.107,200.832 176.5,202C 174.681,202.74 173.348,203.907 172.5,205.5C 171.277,208.398 169.277,210.731 166.5,212.5C 163.644,209.903 160.311,208.07 156.5,207C 148.895,205.689 141.228,205.189 133.5,205.5C 133.5,204.5 133.5,203.5 133.5,202.5C 133.5,201.833 133.833,201.5 134.5,201.5C 136.853,199.899 139.02,197.899 141,195.5C 143.428,191.256 145.594,186.922 147.5,182.5C 149.033,180.645 150.7,178.812 152.5,177C 156.152,176.501 159.818,176.335 163.5,176.5 Z"/></g>
<g><path style="opacity:1" fill="#9de961" d="M 147.5,182.5 C 145.594,186.922 143.428,191.256 141,195.5C 139.02,197.899 136.853,199.899 134.5,201.5C 137.5,196.167 140.5,190.833 143.5,185.5C 144.833,184.5 146.167,183.5 147.5,182.5 Z"/></g>
<g><path style="opacity:1" fill="#5bb13f" d="M 303.5,190.5 C 305.148,191.927 307.148,192.76 309.5,193C 310.381,193.708 311.047,194.542 311.5,195.5C 308.06,194.489 304.726,193.489 301.5,192.5C 295.013,191.346 288.346,191.179 281.5,192C 280.584,192.278 279.918,192.778 279.5,193.5C 264.052,198.288 251.718,207.288 242.5,220.5C 242.5,218.167 242.5,215.833 242.5,213.5C 243.5,213.5 244.5,213.5 245.5,213.5C 245.5,212.5 245.5,211.5 245.5,210.5C 246.5,210.5 247.5,210.5 248.5,210.5C 248.579,209.07 248.246,207.736 247.5,206.5C 247.855,205.478 248.522,204.811 249.5,204.5C 249.369,205.376 249.702,206.043 250.5,206.5C 251.711,205.726 251.711,204.893 250.5,204C 253.117,203.178 255.784,202.678 258.5,202.5C 258.579,201.07 258.246,199.736 257.5,198.5C 262.591,197.584 267.258,195.917 271.5,193.5C 281.933,190.768 292.6,189.768 303.5,190.5 Z"/></g>
<g><path style="opacity:0.173" fill="#2a6630" d="M 301.5,192.5 C 294.124,192.274 286.791,192.608 279.5,193.5C 279.918,192.778 280.584,192.278 281.5,192C 288.346,191.179 295.013,191.346 301.5,192.5 Z"/></g>
<g><path style="opacity:1" fill="#5aa848" d="M 312.5,195.5 C 316.167,195.164 319.5,195.997 322.5,198C 323.252,198.671 323.586,199.504 323.5,200.5C 319.874,198.63 316.208,196.963 312.5,195.5 Z"/></g>
<g><path style="opacity:1" fill="#58cc21" d="M 239.5,175.5 C 239.5,176.5 239.5,177.5 239.5,178.5C 238.325,178.281 237.325,178.614 236.5,179.5C 235.559,181.772 234.226,183.772 232.5,185.5C 233.848,185.45 235.348,185.783 237,186.5C 237.761,189.053 238.594,191.553 239.5,194C 240.549,194.492 241.549,194.326 242.5,193.5C 244.834,196.338 247.834,198.171 251.5,199C 250.536,200.725 249.869,202.559 249.5,204.5C 248.522,204.811 247.855,205.478 247.5,206.5C 248.246,207.736 248.579,209.07 248.5,210.5C 247.5,210.5 246.5,210.5 245.5,210.5C 245.5,211.5 245.5,212.5 245.5,213.5C 244.5,213.5 243.5,213.5 242.5,213.5C 242.5,215.833 242.5,218.167 242.5,220.5C 239.932,220.594 238.432,221.928 238,224.5C 233.077,224.049 228.41,222.716 224,220.5C 223,220.833 222,221.167 221,221.5C 220.452,214.165 219.952,206.831 219.5,199.5C 222.072,196.031 224.406,192.364 226.5,188.5C 228.252,186.754 229.585,184.754 230.5,182.5C 233.705,180.417 236.705,178.083 239.5,175.5 Z"/></g>
<g><path style="opacity:0.91" fill="#3c813d" d="M 326.5,202.5 C 328.749,203.08 330.415,204.413 331.5,206.5C 329.251,205.92 327.585,204.587 326.5,202.5 Z"/></g>
<g><path style="opacity:1" fill="#c0ddc9" d="M 363.5,195.5 C 365.752,197.149 367.419,199.315 368.5,202C 369.736,203.085 371.069,203.918 372.5,204.5C 374.149,212.08 375.149,219.746 375.5,227.5C 374.377,223.418 373.044,219.418 371.5,215.5C 369.401,209.185 366.734,203.185 363.5,197.5C 363.5,196.833 363.5,196.167 363.5,195.5 Z"/></g>
<g><path style="opacity:1" fill="#5fd227" d="M 341.5,173.5 C 343.001,174.752 344.668,175.752 346.5,176.5C 352.566,182.561 358.233,188.894 363.5,195.5C 363.5,196.167 363.5,196.833 363.5,197.5C 364.435,204.255 363.102,210.422 359.5,216C 356.302,216.848 353.469,218.348 351,220.5C 349.887,219.289 348.72,219.289 347.5,220.5C 346.272,217.929 344.272,216.595 341.5,216.5C 340.73,214.065 339.063,212.731 336.5,212.5C 335.753,209.638 334.086,207.638 331.5,206.5C 330.415,204.413 328.749,203.08 326.5,202.5C 324.973,202.573 323.973,201.906 323.5,200.5C 323.586,199.504 323.252,198.671 322.5,198C 319.5,195.997 316.167,195.164 312.5,195.5C 312.167,195.5 311.833,195.5 311.5,195.5C 311.047,194.542 310.381,193.708 309.5,193C 307.148,192.76 305.148,191.927 303.5,190.5C 306.518,190.335 309.518,190.502 312.5,191C 313.167,192 313.833,193 314.5,194C 317.856,195.186 321.189,195.353 324.5,194.5C 326.341,196.512 327.341,198.845 327.5,201.5C 333.372,200.782 339.038,199.282 344.5,197C 346.503,194.998 348.836,193.498 351.5,192.5C 350.089,190.983 350.256,189.649 352,188.5C 352.908,190.439 354.408,191.439 356.5,191.5C 356.649,190.448 356.483,189.448 356,188.5C 351.633,184.297 347.133,180.297 342.5,176.5C 341.873,175.583 341.539,174.583 341.5,173.5 Z"/></g>
<g><path style="opacity:1" fill="#c2d2d6" d="M 367.5,182.5 C 374.61,191.388 379.61,201.388 382.5,212.5C 382.693,216.013 382.026,219.346 380.5,222.5C 379.264,223.246 377.93,223.579 376.5,223.5C 376.5,224.833 376.5,226.167 376.5,227.5C 376.167,227.5 375.833,227.5 375.5,227.5C 375.149,219.746 374.149,212.08 372.5,204.5C 372.878,202.354 373.212,200.187 373.5,198C 372.582,195.239 371.916,192.406 371.5,189.5C 370.5,189.5 369.5,189.5 368.5,189.5C 368.007,187.194 367.674,184.861 367.5,182.5 Z"/></g>
<g><path style="opacity:0.734" fill="#28682b" d="M 217.5,199.5 C 217.833,199.5 218.167,199.5 218.5,199.5C 218.5,204.833 218.5,210.167 218.5,215.5C 218.5,224.167 218.5,232.833 218.5,241.5C 218.167,241.5 217.833,241.5 217.5,241.5C 217.5,240.5 217.5,239.5 217.5,238.5C 216.758,225.828 216.758,212.828 217.5,199.5 Z"/></g>
<g><path style="opacity:1" fill="#e7ecee" d="M 302.5,275.5 C 301.833,275.5 301.5,275.833 301.5,276.5C 300.833,276.5 300.5,276.833 300.5,277.5C 299.833,277.5 299.5,277.833 299.5,278.5C 298.508,278.328 297.842,278.662 297.5,279.5C 296.833,279.5 296.5,279.833 296.5,280.5C 283.784,287.539 270.451,289.206 256.5,285.5C 259.5,284.833 262.5,284.167 265.5,283.5C 276.986,283.174 286.153,278.508 293,269.5C 296.32,260.1 293.82,252.433 285.5,246.5C 285.842,245.662 286.508,245.328 287.5,245.5C 302.277,243.952 306.777,236.286 301,222.5C 295.37,217.506 289.203,216.673 282.5,220C 277.419,225.238 275.586,231.405 277,238.5C 274.388,241.389 272.555,244.722 271.5,248.5C 265.367,240.413 263.867,231.413 267,221.5C 275.134,207.01 286.967,202.843 302.5,209C 316.001,219.008 319.001,231.675 311.5,247C 313.422,258.067 310.422,267.567 302.5,275.5 Z"/></g>
<g><path style="opacity:0.592" fill="#357732" d="M 331.5,206.5 C 334.086,207.638 335.753,209.638 336.5,212.5C 334.11,211.109 332.443,209.109 331.5,206.5 Z"/></g>
<g><path style="opacity:1" fill="#1cd0ef" d="M 175.5,206.5 C 180.593,207.219 185.593,208.386 190.5,210C 191.369,212.368 193.035,213.868 195.5,214.5C 196.491,218.445 196.824,222.445 196.5,226.5C 187.001,226.088 177.667,227.088 168.5,229.5C 167.767,225.622 165.434,223.289 161.5,222.5C 161.5,221.833 161.5,221.167 161.5,220.5C 163.514,218.817 165.18,216.817 166.5,214.5C 169.571,211.754 172.571,209.087 175.5,206.5 Z"/></g>
<g><path style="opacity:1" fill="#59e5a0" d="M 191.5,197.5 C 190.552,198.978 189.219,199.978 187.5,200.5C 183.25,202.104 179.25,204.104 175.5,206.5C 172.571,209.087 169.571,211.754 166.5,214.5C 165.494,214.062 165.494,213.396 166.5,212.5C 169.277,210.731 171.277,208.398 172.5,205.5C 177.757,203.538 182.757,201.038 187.5,198C 188.793,197.51 190.127,197.343 191.5,197.5 Z"/></g>
<g><path style="opacity:1" fill="#4cafba" d="M 401.5,221.5 C 401.473,219.801 400.806,218.467 399.5,217.5C 403.311,211.222 407.144,204.889 411,198.5C 408.914,206.586 405.747,214.253 401.5,221.5 Z"/></g>
<g><path style="opacity:1" fill="#3b92aa" d="M 325.5,213.5 C 323.656,215.279 322.99,217.612 323.5,220.5C 322.29,217.523 321.29,214.356 320.5,211C 320.63,209.941 321.13,209.108 322,208.5C 323.669,209.846 324.836,211.513 325.5,213.5 Z"/></g>
<g><path style="opacity:1" fill="#23901a" d="M 133.5,202.5 C 133.5,203.5 133.5,204.5 133.5,205.5C 141.228,205.189 148.895,205.689 156.5,207C 160.311,208.07 163.644,209.903 166.5,212.5C 165.494,213.396 165.494,214.062 166.5,214.5C 165.18,216.817 163.514,218.817 161.5,220.5C 148.833,220.5 136.167,220.5 123.5,220.5C 123.5,219.5 123.5,218.5 123.5,217.5C 126.867,212.477 130.2,207.477 133.5,202.5 Z"/></g>
<g><path style="opacity:1" fill="#429239" d="M 336.5,212.5 C 339.063,212.731 340.73,214.065 341.5,216.5C 343.075,218.114 343.741,220.114 343.5,222.5C 341.199,219.19 338.866,215.857 336.5,212.5 Z"/></g>
<g><path style="opacity:0.761" fill="#1b5a31" d="M 123.5,217.5 C 123.5,218.5 123.5,219.5 123.5,220.5C 136.167,220.5 148.833,220.5 161.5,220.5C 161.5,221.167 161.5,221.833 161.5,222.5C 161.167,222.5 160.833,222.5 160.5,222.5C 147.149,222.431 133.815,222.097 120.5,221.5C 121.026,219.77 122.026,218.436 123.5,217.5 Z"/></g>
<g><path style="opacity:1" fill="#3cb41b" d="M 218.5,199.5 C 218.833,199.5 219.167,199.5 219.5,199.5C 219.952,206.831 220.452,214.165 221,221.5C 222,221.167 223,220.833 224,220.5C 228.41,222.716 233.077,224.049 238,224.5C 238.432,221.928 239.932,220.594 242.5,220.5C 242.443,221.609 242.11,222.609 241.5,223.5C 240.1,224.1 239.1,225.1 238.5,226.5C 234.987,231.468 232.82,237.134 232,243.5C 231.586,243.957 231.086,244.291 230.5,244.5C 229.701,241.411 228.201,238.744 226,236.5C 225.187,239.982 223.521,240.315 221,237.5C 219.983,230.049 219.15,222.715 218.5,215.5C 218.5,210.167 218.5,204.833 218.5,199.5 Z"/></g>
<g><path style="opacity:0.016" fill="#1f5f25" d="M 343.5,223.5 C 345.614,224.784 346.614,226.784 346.5,229.5C 345.13,227.75 344.13,225.75 343.5,223.5 Z"/></g>
<g><path style="opacity:1" fill="#46bd1c" d="M 363.5,197.5 C 366.734,203.185 369.401,209.185 371.5,215.5C 371.5,216.833 371.5,218.167 371.5,219.5C 366.986,222.9 362.653,226.734 358.5,231C 355.941,232.777 353.274,234.277 350.5,235.5C 350.052,232.828 348.719,230.828 346.5,229.5C 346.614,226.784 345.614,224.784 343.5,223.5C 343.5,223.167 343.5,222.833 343.5,222.5C 343.741,220.114 343.075,218.114 341.5,216.5C 344.272,216.595 346.272,217.929 347.5,220.5C 348.72,219.289 349.887,219.289 351,220.5C 353.469,218.348 356.302,216.848 359.5,216C 363.102,210.422 364.435,204.255 363.5,197.5 Z"/></g>
<g><path style="opacity:0.082" fill="#0b5c76" d="M 323.5,221.5 C 324.165,224.314 324.498,227.314 324.5,230.5C 324.684,235.107 324.017,239.44 322.5,243.5C 323.302,236.196 323.635,228.862 323.5,221.5 Z"/></g>
<g><path style="opacity:1" fill="#93b0b8" d="M 382.5,212.5 C 383.768,214.905 384.435,217.572 384.5,220.5C 384.665,224.182 384.499,227.848 384,231.5C 381.815,232.928 379.815,234.595 378,236.5C 376.851,233.607 376.351,230.607 376.5,227.5C 376.5,226.167 376.5,224.833 376.5,223.5C 377.93,223.579 379.264,223.246 380.5,222.5C 382.026,219.346 382.693,216.013 382.5,212.5 Z"/></g>
<g><path style="opacity:0.494" fill="#145426" d="M 241.5,223.5 C 238.11,231.653 235.777,239.986 234.5,248.5C 234.56,240.929 235.893,233.595 238.5,226.5C 239.1,225.1 240.1,224.1 241.5,223.5 Z"/></g>
<g><path style="opacity:1" fill="#07b2de" d="M 160.5,222.5 C 160.833,222.5 161.167,222.5 161.5,222.5C 165.434,223.289 167.767,225.622 168.5,229.5C 177.667,227.088 187.001,226.088 196.5,226.5C 196.5,251.5 196.5,276.5 196.5,301.5C 195.669,290.007 195.169,278.341 195,266.5C 194.667,267.5 194.333,268.5 194,269.5C 191.053,264.986 190.22,260.153 191.5,255C 188.813,254.949 186.146,255.449 183.5,256.5C 182.273,257.59 181.44,258.924 181,260.5C 178.966,257.141 176.632,256.808 174,259.5C 173.085,258.672 172.419,257.672 172,256.5C 171.798,258.256 171.298,259.922 170.5,261.5C 169.71,251.442 168.71,241.442 167.5,231.5C 167.737,230.209 167.404,229.209 166.5,228.5C 164.833,226.167 162.833,224.167 160.5,222.5 Z"/></g>
<g><path style="opacity:1" fill="#3be5f7" d="M 325.5,213.5 C 330.032,216.363 333.032,220.363 334.5,225.5C 335.833,234.833 335.833,244.167 334.5,253.5C 334.396,255.703 333.73,257.703 332.5,259.5C 331.5,259.5 330.5,259.5 329.5,259.5C 329.785,261.288 329.452,262.955 328.5,264.5C 326.364,265.472 325.197,267.139 325,269.5C 324.586,269.043 324.086,268.709 323.5,268.5C 320.754,270.623 317.921,272.623 315,274.5C 313.491,274.077 311.991,272.91 310.5,271C 313.423,268.955 316.257,266.788 319,264.5C 318.806,260.74 319.973,257.574 322.5,255C 321.709,252.25 321.709,249.417 322.5,246.5C 322.5,245.5 322.5,244.5 322.5,243.5C 324.017,239.44 324.684,235.107 324.5,230.5C 324.498,227.314 324.165,224.314 323.5,221.5C 323.5,221.167 323.5,220.833 323.5,220.5C 322.99,217.612 323.656,215.279 325.5,213.5 Z"/></g>
<g><path style="opacity:1" fill="#31a815" d="M 371.5,219.5 C 373.561,226.307 372.561,232.64 368.5,238.5C 365.827,239.501 363.493,241.001 361.5,243C 358.288,245.875 355.455,249.042 353,252.5C 352.95,247.873 352.117,243.54 350.5,239.5C 350.5,238.167 350.5,236.833 350.5,235.5C 353.274,234.277 355.941,232.777 358.5,231C 362.653,226.734 366.986,222.9 371.5,219.5 Z"/></g>
<g><path style="opacity:0.869" fill="#3898b0" d="M 334.5,225.5 C 335.268,226.263 335.768,227.263 336,228.5C 336.667,235.833 336.667,243.167 336,250.5C 335.768,251.737 335.268,252.737 334.5,253.5C 335.833,244.167 335.833,234.833 334.5,225.5 Z"/></g>
<g><path style="opacity:1" fill="#528d8c" d="M 384.5,220.5 C 385.068,224.601 386.068,228.601 387.5,232.5C 384.208,237.46 380.208,241.793 375.5,245.5C 375.5,239.5 375.5,233.5 375.5,227.5C 375.833,227.5 376.167,227.5 376.5,227.5C 376.351,230.607 376.851,233.607 378,236.5C 379.815,234.595 381.815,232.928 384,231.5C 384.499,227.848 384.665,224.182 384.5,220.5 Z"/></g>
<g><path style="opacity:1" fill="#f05f7c" d="M 135.5,234.5 C 141.167,234.5 146.833,234.5 152.5,234.5C 152.5,238.833 152.5,243.167 152.5,247.5C 149.5,247.5 146.5,247.5 143.5,247.5C 143.5,247.167 143.5,246.833 143.5,246.5C 146.167,246.5 148.833,246.5 151.5,246.5C 151.5,242.833 151.5,239.167 151.5,235.5C 147.486,235.334 143.486,235.501 139.5,236C 137.947,237.097 136.614,238.43 135.5,240C 131.251,241.126 126.918,241.792 122.5,242C 124.184,243.209 125.517,244.709 126.5,246.5C 122.557,245.464 120.89,243.13 121.5,239.5C 125.885,236.622 130.551,234.955 135.5,234.5 Z"/></g>
<g><path style="opacity:1" fill="#fb3f64" d="M 143.5,246.5 C 137.833,246.5 132.167,246.5 126.5,246.5C 125.517,244.709 124.184,243.209 122.5,242C 126.918,241.792 131.251,241.126 135.5,240C 136.614,238.43 137.947,237.097 139.5,236C 143.486,235.501 147.486,235.334 151.5,235.5C 151.5,239.167 151.5,242.833 151.5,246.5C 148.833,246.5 146.167,246.5 143.5,246.5 Z"/></g>
<g><path style="opacity:1" fill="#31a525" d="M 218.5,215.5 C 219.15,222.715 219.983,230.049 221,237.5C 223.521,240.315 225.187,239.982 226,236.5C 228.201,238.744 229.701,241.411 230.5,244.5C 231.086,244.291 231.586,243.957 232,243.5C 232.82,237.134 234.987,231.468 238.5,226.5C 235.893,233.595 234.56,240.929 234.5,248.5C 234.5,250.833 234.5,253.167 234.5,255.5C 234.167,255.5 233.833,255.5 233.5,255.5C 228.519,251.524 223.519,247.524 218.5,243.5C 218.5,242.833 218.5,242.167 218.5,241.5C 218.5,232.833 218.5,224.167 218.5,215.5 Z"/></g>
<g><path style="opacity:0.176" fill="#20405a" d="M 287.5,245.5 C 286.508,245.328 285.842,245.662 285.5,246.5C 284.115,245.698 284.282,245.031 286,244.5C 286.765,244.57 287.265,244.903 287.5,245.5 Z"/></g>
<g><path style="opacity:0.966" fill="#cf6987" d="M 123.5,234.5 C 127.5,234.5 131.5,234.5 135.5,234.5C 130.551,234.955 125.885,236.622 121.5,239.5C 120.89,243.13 122.557,245.464 126.5,246.5C 132.167,246.5 137.833,246.5 143.5,246.5C 143.5,246.833 143.5,247.167 143.5,247.5C 136.833,247.5 130.167,247.5 123.5,247.5C 118.188,244.926 117.022,241.259 120,236.5C 120.816,235.177 121.983,234.511 123.5,234.5 Z"/></g>
<g><path style="opacity:0.429" fill="#582648" d="M 123.5,247.5 C 130.167,247.5 136.833,247.5 143.5,247.5C 146.5,247.5 149.5,247.5 152.5,247.5C 152.5,243.167 152.5,238.833 152.5,234.5C 146.833,234.5 141.167,234.5 135.5,234.5C 131.5,234.5 127.5,234.5 123.5,234.5C 132.371,233.808 141.371,233.141 150.5,232.5C 153.208,233.761 154.542,235.927 154.5,239C 154.064,242.218 153.398,245.384 152.5,248.5C 151.833,248.833 151.167,249.167 150.5,249.5C 141.371,248.859 132.371,248.192 123.5,247.5 Z"/></g>
<g><path style="opacity:0.492" fill="#1e6933" d="M 346.5,229.5 C 348.719,230.828 350.052,232.828 350.5,235.5C 350.5,236.833 350.5,238.167 350.5,239.5C 351.276,246.137 351.609,252.804 351.5,259.5C 350.541,266.608 349.208,273.774 347.5,281C 347.57,281.765 347.903,282.265 348.5,282.5C 347.415,284.587 345.749,285.92 343.5,286.5C 347.388,275.348 349.721,263.848 350.5,252C 350.081,244.32 348.748,236.82 346.5,229.5 Z"/></g>
<g><path style="opacity:1" fill="#218d17" d="M 371.5,215.5 C 373.044,219.418 374.377,223.418 375.5,227.5C 375.5,233.5 375.5,239.5 375.5,245.5C 373.833,247.833 371.833,249.833 369.5,251.5C 365.935,251.348 363.602,253.348 362.5,257.5C 361.833,257.167 361.167,256.833 360.5,256.5C 358.18,260.476 355.513,264.143 352.5,267.5C 351.52,264.914 351.187,262.247 351.5,259.5C 351.609,252.804 351.276,246.137 350.5,239.5C 352.117,243.54 352.95,247.873 353,252.5C 355.455,249.042 358.288,245.875 361.5,243C 363.493,241.001 365.827,239.501 368.5,238.5C 372.561,232.64 373.561,226.307 371.5,219.5C 371.5,218.167 371.5,216.833 371.5,215.5 Z"/></g>
<g><path style="opacity:0.373" fill="#532d4b" d="M 153.5,268.5 C 153.815,264.629 153.482,260.962 152.5,257.5C 146.588,255.544 140.255,254.877 133.5,255.5C 129.434,255.307 125.434,255.64 121.5,256.5C 121.611,255.883 121.944,255.383 122.5,255C 132.849,254.168 143.183,254.334 153.5,255.5C 154.799,259.964 154.799,264.298 153.5,268.5 Z"/></g>
<g><path style="opacity:1" fill="#f68293" d="M 133.5,255.5 C 130.183,259.751 125.849,261.085 120.5,259.5C 121.11,258.609 121.443,257.609 121.5,256.5C 125.434,255.64 129.434,255.307 133.5,255.5 Z"/></g>
<g><path style="opacity:1" fill="#70f8fc" d="M 195.5,174.5 C 196.167,174.5 196.833,174.5 197.5,174.5C 199.833,174.5 202.167,174.5 204.5,174.5C 204.5,174.833 204.5,175.167 204.5,175.5C 203.502,207.329 203.168,239.329 203.5,271.5C 202.178,271.67 201.011,271.337 200,270.5C 199.667,271.5 199.333,272.5 199,273.5C 197.811,248.52 196.978,223.52 196.5,198.5C 193.739,199.92 190.739,200.587 187.5,200.5C 189.219,199.978 190.552,198.978 191.5,197.5C 192.167,197.5 192.833,197.5 193.5,197.5C 194.5,197.5 195.5,197.5 196.5,197.5C 196.799,189.747 196.466,182.08 195.5,174.5 Z"/></g>
<g><path style="opacity:1" fill="#37e0f0" d="M 399.5,217.5 C 400.806,218.467 401.473,219.801 401.5,221.5C 397.628,230.578 393.295,239.244 388.5,247.5C 387.167,247.5 385.833,247.5 384.5,247.5C 384.657,248.873 384.49,250.207 384,251.5C 383.02,250.019 381.853,248.685 380.5,247.5C 380.167,248 379.833,248.5 379.5,249C 380.953,250.783 381.953,252.783 382.5,255C 382.333,255.833 382.167,256.667 382,257.5C 379.175,254.662 378.342,254.996 379.5,258.5C 378.246,260.334 377.579,262.334 377.5,264.5C 374.221,265.031 372.887,267.031 373.5,270.5C 369.115,268.885 367.781,270.218 369.5,274.5C 368.07,274.579 366.736,274.246 365.5,273.5C 365.167,274.167 364.833,274.833 364.5,275.5C 363.232,274.572 361.899,274.405 360.5,275C 356.365,278.463 352.198,281.963 348,285.5C 347.28,287.112 347.446,288.612 348.5,290C 346.508,290.574 345.008,291.741 344,293.5C 343.586,293.043 343.086,292.709 342.5,292.5C 342.167,293.167 341.833,293.833 341.5,294.5C 340.5,294.167 339.833,293.5 339.5,292.5C 341.833,291.168 343.166,289.168 343.5,286.5C 345.749,285.92 347.415,284.587 348.5,282.5C 352.124,280.049 355.624,277.383 359,274.5C 363.585,267.207 367.085,259.541 369.5,251.5C 371.833,249.833 373.833,247.833 375.5,245.5C 380.208,241.793 384.208,237.46 387.5,232.5C 390.79,226.913 394.79,221.913 399.5,217.5 Z"/></g>
<g><path style="opacity:1" fill="#35bcd3" d="M 388.5,247.5 C 385.239,256.37 380.239,264.037 373.5,270.5C 372.887,267.031 374.221,265.031 377.5,264.5C 377.579,262.334 378.246,260.334 379.5,258.5C 378.342,254.996 379.175,254.662 382,257.5C 382.167,256.667 382.333,255.833 382.5,255C 381.953,252.783 380.953,250.783 379.5,249C 379.833,248.5 380.167,248 380.5,247.5C 381.853,248.685 383.02,250.019 384,251.5C 384.49,250.207 384.657,248.873 384.5,247.5C 385.833,247.5 387.167,247.5 388.5,247.5 Z"/></g>
<g><path style="opacity:0.943" fill="#91576f" d="M 121.5,256.5 C 121.443,257.609 121.11,258.609 120.5,259.5C 119.924,263.112 120.924,266.112 123.5,268.5C 123.167,268.5 122.833,268.5 122.5,268.5C 116.471,264.809 116.138,260.809 121.5,256.5 Z"/></g>
<g><path style="opacity:1" fill="#f55373" d="M 133.5,255.5 C 140.255,254.877 146.588,255.544 152.5,257.5C 152.5,261.167 152.5,264.833 152.5,268.5C 143.833,268.5 135.167,268.5 126.5,268.5C 125.5,268.5 124.5,268.5 123.5,268.5C 120.924,266.112 119.924,263.112 120.5,259.5C 125.849,261.085 130.183,259.751 133.5,255.5 Z"/></g>
<g><path style="opacity:1" fill="#fb365f" d="M 141.5,256.5 C 144.833,256.5 148.167,256.5 151.5,256.5C 151.5,260.167 151.5,263.833 151.5,267.5C 145.242,267.81 139.076,267.476 133,266.5C 132.251,265.365 132.417,264.365 133.5,263.5C 136.483,261.517 139.149,259.183 141.5,256.5 Z"/></g>
<g><path style="opacity:1" fill="#14c6e8" d="M 218.5,243.5 C 223.519,247.524 228.519,251.524 233.5,255.5C 233.766,259.571 233.433,263.571 232.5,267.5C 233.853,268.524 234.52,269.857 234.5,271.5C 235.5,271.5 236.5,271.5 237.5,271.5C 237.663,273.857 237.497,276.19 237,278.5C 235.601,278.501 234.101,278.835 232.5,279.5C 231.614,280.325 231.281,281.325 231.5,282.5C 230.178,282.67 229.011,282.337 228,281.5C 227.333,279.5 226.667,277.5 226,275.5C 224.667,276.167 223.667,277.167 223,278.5C 222.61,275.896 221.776,273.562 220.5,271.5C 219.833,268.833 219.167,266.167 218.5,263.5C 218.5,256.833 218.5,250.167 218.5,243.5 Z"/></g>
<g><path style="opacity:1" fill="#177d19" d="M 369.5,251.5 C 367.085,259.541 363.585,267.207 359,274.5C 355.624,277.383 352.124,280.049 348.5,282.5C 347.903,282.265 347.57,281.765 347.5,281C 349.208,273.774 350.541,266.608 351.5,259.5C 351.187,262.247 351.52,264.914 352.5,267.5C 355.513,264.143 358.18,260.476 360.5,256.5C 361.167,256.833 361.833,257.167 362.5,257.5C 363.602,253.348 365.935,251.348 369.5,251.5 Z"/></g>
<g><path style="opacity:0.576" fill="#371635" d="M 122.5,268.5 C 122.833,268.5 123.167,268.5 123.5,268.5C 124.5,268.5 125.5,268.5 126.5,268.5C 135.318,269.493 144.318,269.827 153.5,269.5C 144.343,270.658 135.009,270.824 125.5,270C 124.263,269.768 123.263,269.268 122.5,268.5 Z"/></g>
<g><path style="opacity:0.737" fill="#a6375f" d="M 152.5,257.5 C 153.482,260.962 153.815,264.629 153.5,268.5C 153.5,268.833 153.5,269.167 153.5,269.5C 144.318,269.827 135.318,269.493 126.5,268.5C 135.167,268.5 143.833,268.5 152.5,268.5C 152.5,264.833 152.5,261.167 152.5,257.5 Z"/></g>
<g><path style="opacity:0.885" fill="#6bc0d2" d="M 204.5,175.5 C 205.699,201.105 205.699,226.771 204.5,252.5C 204.831,278.672 204.498,304.672 203.5,330.5C 203.5,310.833 203.5,291.167 203.5,271.5C 203.168,239.329 203.502,207.329 204.5,175.5 Z"/></g>
<g><path style="opacity:1" fill="#06a7d7" d="M 167.5,231.5 C 168.71,241.442 169.71,251.442 170.5,261.5C 171.298,259.922 171.798,258.256 172,256.5C 172.419,257.672 173.085,258.672 174,259.5C 176.632,256.808 178.966,257.141 181,260.5C 181.44,258.924 182.273,257.59 183.5,256.5C 186.146,255.449 188.813,254.949 191.5,255C 190.22,260.153 191.053,264.986 194,269.5C 194.333,268.5 194.667,267.5 195,266.5C 195.169,278.341 195.669,290.007 196.5,301.5C 196.5,304.5 196.5,307.5 196.5,310.5C 196.5,313.5 196.5,316.5 196.5,319.5C 195.27,314.706 194.437,309.706 194,304.5C 193.333,303.167 192.667,303.167 192,304.5C 191.338,302.187 190.838,299.854 190.5,297.5C 185.767,297.777 181.1,297.443 176.5,296.5C 174.833,297.5 173.5,298.833 172.5,300.5C 171.104,298.028 170.27,295.362 170,292.5C 168.663,296.026 168.163,299.692 168.5,303.5C 168.167,303.5 167.833,303.5 167.5,303.5C 167.5,279.5 167.5,255.5 167.5,231.5 Z"/></g>
<g><path style="opacity:1" fill="#15b8e1" d="M 233.5,255.5 C 233.833,255.5 234.167,255.5 234.5,255.5C 237.81,282.805 252.477,300.805 278.5,309.5C 274.892,310.436 271.726,310.436 269,309.5C 267.238,309.056 267.405,308.556 269.5,308C 266.966,307.484 264.8,306.317 263,304.5C 262.804,306.286 261.971,307.619 260.5,308.5C 259.086,307.376 257.586,306.376 256,305.5C 256.204,308.073 255.704,310.74 254.5,313.5C 255,313.833 255.5,314.167 256,314.5C 258.988,312.465 262.155,310.798 265.5,309.5C 269.234,311.023 268.901,312.189 264.5,313C 262.913,314.845 261.579,316.845 260.5,319C 263.209,319.576 265.876,320.91 268.5,323C 267.833,323.333 267.167,323.667 266.5,324C 268.727,324.941 270.727,326.108 272.5,327.5C 264.557,324.958 256.891,321.624 249.5,317.5C 246.346,315.261 243.179,312.927 240,310.5C 237.844,305.334 234.511,301.001 230,297.5C 226.948,291.747 224.282,285.747 222,279.5C 221.178,276.883 220.678,274.216 220.5,271.5C 221.776,273.562 222.61,275.896 223,278.5C 223.667,277.167 224.667,276.167 226,275.5C 226.667,277.5 227.333,279.5 228,281.5C 229.011,282.337 230.178,282.67 231.5,282.5C 231.281,281.325 231.614,280.325 232.5,279.5C 234.101,278.835 235.601,278.501 237,278.5C 237.497,276.19 237.663,273.857 237.5,271.5C 236.5,271.5 235.5,271.5 234.5,271.5C 234.52,269.857 233.853,268.524 232.5,267.5C 233.433,263.571 233.766,259.571 233.5,255.5 Z"/></g>
<g><path style="opacity:1" fill="#a05572" d="M 124.5,276.5 C 134.227,275.861 143.56,276.528 152.5,278.5C 152.167,278.5 151.833,278.5 151.5,278.5C 142.676,277.343 133.676,277.176 124.5,278C 119.814,280.954 119.148,284.787 122.5,289.5C 116.483,285.905 116.15,281.738 121.5,277C 122.448,276.517 123.448,276.351 124.5,276.5 Z"/></g>
<g><path style="opacity:1" fill="#f65471" d="M 151.5,278.5 C 151.833,278.5 152.167,278.5 152.5,278.5C 152.5,282.167 152.5,285.833 152.5,289.5C 142.5,289.5 132.5,289.5 122.5,289.5C 119.148,284.787 119.814,280.954 124.5,278C 133.676,277.176 142.676,277.343 151.5,278.5 Z"/></g>
<g><path style="opacity:1" fill="#fc355b" d="M 151.5,278.5 C 151.5,281.833 151.5,285.167 151.5,288.5C 145.532,289.117 139.866,288.283 134.5,286C 136.5,283.667 138.5,281.333 140.5,279C 144.152,278.501 147.818,278.335 151.5,278.5 Z"/></g>
<g><path style="opacity:0.043" fill="#3d5465" d="M 265.5,283.5 C 262.5,284.167 259.5,284.833 256.5,285.5C 254.821,285.108 253.154,284.608 251.5,284C 256.155,283.501 260.821,283.334 265.5,283.5 Z"/></g>
<g><path style="opacity:0.592" fill="#652546" d="M 124.5,276.5 C 133.986,275.506 143.652,275.173 153.5,275.5C 153.85,280.609 153.85,285.609 153.5,290.5C 149.167,290.833 144.833,291.167 140.5,291.5C 134.251,291.706 128.251,291.04 122.5,289.5C 132.5,289.5 142.5,289.5 152.5,289.5C 152.5,285.833 152.5,282.167 152.5,278.5C 143.56,276.528 134.227,275.861 124.5,276.5 Z"/></g>
<g><path style="opacity:1" fill="#169ac1" d="M 302.5,275.5 C 303.167,275.5 303.833,275.5 304.5,275.5C 302.167,278.003 300.001,280.669 298,283.5C 297.517,284.448 297.351,285.448 297.5,286.5C 296.5,286.5 295.5,286.5 294.5,286.5C 294.5,287.833 294.5,289.167 294.5,290.5C 298.807,289.673 303.14,289.007 307.5,288.5C 298.497,294.747 288.497,296.914 277.5,295C 276.167,294.333 276.167,293.667 277.5,293C 284.801,290.179 291.135,286.013 296.5,280.5C 297.167,280.5 297.5,280.167 297.5,279.5C 298.492,279.672 299.158,279.338 299.5,278.5C 300.167,278.5 300.5,278.167 300.5,277.5C 301.167,277.5 301.5,277.167 301.5,276.5C 302.167,276.5 302.5,276.167 302.5,275.5 Z"/></g>
<g><path style="opacity:1" fill="#1eb8de" d="M 322.5,246.5 C 321.709,249.417 321.709,252.25 322.5,255C 319.973,257.574 318.806,260.74 319,264.5C 316.257,266.788 313.423,268.955 310.5,271C 311.991,272.91 313.491,274.077 315,274.5C 317.921,272.623 320.754,270.623 323.5,268.5C 324.086,268.709 324.586,269.043 325,269.5C 325.197,267.139 326.364,265.472 328.5,264.5C 329.452,262.955 329.785,261.288 329.5,259.5C 330.5,259.5 331.5,259.5 332.5,259.5C 327.651,272.217 319.317,281.883 307.5,288.5C 303.14,289.007 298.807,289.673 294.5,290.5C 294.5,289.167 294.5,287.833 294.5,286.5C 295.5,286.5 296.5,286.5 297.5,286.5C 297.351,285.448 297.517,284.448 298,283.5C 300.001,280.669 302.167,278.003 304.5,275.5C 313.312,267.536 319.312,257.869 322.5,246.5 Z"/></g>
<g><path style="opacity:1" fill="#30c3d9" d="M 373.5,270.5 C 360.986,286.339 344.986,297.006 325.5,302.5C 323.692,302.509 322.025,302.009 320.5,301C 321.056,300.617 321.389,300.117 321.5,299.5C 329.127,295.685 336.461,291.352 343.5,286.5C 343.166,289.168 341.833,291.168 339.5,292.5C 339.833,293.5 340.5,294.167 341.5,294.5C 341.833,293.833 342.167,293.167 342.5,292.5C 343.086,292.709 343.586,293.043 344,293.5C 345.008,291.741 346.508,290.574 348.5,290C 347.446,288.612 347.28,287.112 348,285.5C 352.198,281.963 356.365,278.463 360.5,275C 361.899,274.405 363.232,274.572 364.5,275.5C 364.833,274.833 365.167,274.167 365.5,273.5C 366.736,274.246 368.07,274.579 369.5,274.5C 367.781,270.218 369.115,268.885 373.5,270.5 Z"/></g>
<g><path style="opacity:1" fill="#d2e0e5" d="M 363.5,304.5 C 362.699,302.958 362.366,301.292 362.5,299.5C 365.792,299.88 368.125,298.547 369.5,295.5C 370.325,294.614 371.325,294.281 372.5,294.5C 373.119,291.367 374.786,288.867 377.5,287C 377.265,286.127 376.931,285.293 376.5,284.5C 378.038,282.757 379.038,280.757 379.5,278.5C 383.442,271.615 387.109,264.615 390.5,257.5C 396.518,246.128 402.018,234.461 407,222.5C 401.682,254.807 387.182,282.14 363.5,304.5 Z"/></g>
<g><path style="opacity:1" fill="#099cd2" d="M 217.5,241.5 C 217.833,241.5 218.167,241.5 218.5,241.5C 218.5,242.167 218.5,242.833 218.5,243.5C 218.5,250.167 218.5,256.833 218.5,263.5C 218.334,270.841 218.5,278.174 219,285.5C 219.249,284.376 219.749,283.376 220.5,282.5C 220.833,282.667 221.167,282.833 221.5,283C 219.944,289.397 220.277,295.897 222.5,302.5C 223.672,302.081 224.672,301.415 225.5,300.5C 224.41,299.391 224.41,298.391 225.5,297.5C 226.243,298.908 227.077,300.241 228,301.5C 228.333,301.167 228.667,300.833 229,300.5C 229.333,301.833 229.667,303.167 230,304.5C 230.741,305.641 231.575,305.641 232.5,304.5C 234.975,308.142 237.642,311.642 240.5,315C 241.833,315.333 243.167,315.667 244.5,316C 247.045,319.59 249.712,323.09 252.5,326.5C 252.296,325.471 252.796,324.471 254,323.5C 254.5,324.667 255.333,325.5 256.5,326C 256.167,326.333 255.833,326.667 255.5,327C 257.169,328.669 259.169,329.502 261.5,329.5C 261.773,331.451 261.107,332.951 259.5,334C 264.024,336.503 268.857,338.003 274,338.5C 278.109,338.203 282.109,338.203 286,338.5C 286.995,339.066 287.828,339.733 288.5,340.5C 257.198,341.319 233.698,328.319 218,301.5C 217.5,281.503 217.333,261.503 217.5,241.5 Z"/></g>
<g><path style="opacity:1" fill="#2583a3" d="M 321.5,299.5 C 321.389,300.117 321.056,300.617 320.5,301C 322.025,302.009 323.692,302.509 325.5,302.5C 320.743,304.194 315.743,304.694 310.5,304C 313.875,301.819 317.542,300.319 321.5,299.5 Z"/></g>
<g><path style="opacity:1" fill="#45e8fa" d="M 203.5,271.5 C 203.5,291.167 203.5,310.833 203.5,330.5C 203.436,334.22 202.936,337.886 202,341.5C 200.605,340.185 199.605,340.519 199,342.5C 197.93,331.716 197.097,321.049 196.5,310.5C 196.5,307.5 196.5,304.5 196.5,301.5C 196.5,276.5 196.5,251.5 196.5,226.5C 196.824,222.445 196.491,218.445 195.5,214.5C 193.035,213.868 191.369,212.368 190.5,210C 185.593,208.386 180.593,207.219 175.5,206.5C 179.25,204.104 183.25,202.104 187.5,200.5C 190.739,200.587 193.739,199.92 196.5,198.5C 196.978,223.52 197.811,248.52 199,273.5C 199.333,272.5 199.667,271.5 200,270.5C 201.011,271.337 202.178,271.67 203.5,271.5 Z"/></g>
<g><path style="opacity:1" fill="#e2fbfb" d="M 379.5,278.5 C 379.038,280.757 378.038,282.757 376.5,284.5C 376.931,285.293 377.265,286.127 377.5,287C 374.786,288.867 373.119,291.367 372.5,294.5C 371.325,294.281 370.325,294.614 369.5,295.5C 368.125,298.547 365.792,299.88 362.5,299.5C 362.366,301.292 362.699,302.958 363.5,304.5C 361.5,307.167 359.167,309.5 356.5,311.5C 342.763,319.638 328.096,325.638 312.5,329.5C 319.38,325.501 327.046,321.668 335.5,318C 343.5,312.333 351.5,306.667 359.5,301C 366.517,293.791 373.183,286.291 379.5,278.5 Z"/></g>
<g><path style="opacity:1" fill="#92c5d2" d="M 405.5,314.5 C 405.89,311.534 405.223,308.868 403.5,306.5C 399.825,305.546 396.492,305.546 393.5,306.5C 396.187,302.265 399.854,301.432 404.5,304C 406.622,307.447 406.955,310.947 405.5,314.5 Z"/></g>
<g><path style="opacity:0.965" fill="#84435f" d="M 136.5,303.5 C 135.841,306.455 135.508,309.455 135.5,312.5C 129.029,313.655 123.529,311.989 119,307.5C 117.639,302.726 119.139,299.226 123.5,297C 129.944,296.085 136.277,296.419 142.5,298C 139.977,299.36 137.977,301.193 136.5,303.5 Z"/></g>
<g><path style="opacity:1" fill="#f75f77" d="M 136.5,303.5 C 134.837,305.438 134.171,307.772 134.5,310.5C 130.818,310.665 127.152,310.499 123.5,310C 119.263,305.939 119.597,302.272 124.5,299C 128.833,298.333 133.167,298.333 137.5,299C 136.62,300.356 136.286,301.856 136.5,303.5 Z"/></g>
<g><path style="opacity:1" fill="#039acf" d="M 196.5,319.5 C 196.5,333.833 196.5,348.167 196.5,362.5C 195.514,358.03 195.181,353.363 195.5,348.5C 195.924,340.362 195.091,332.362 193,324.5C 192.667,325.167 192.333,325.833 192,326.5C 190.117,325.347 189.284,323.681 189.5,321.5C 187.123,321.216 184.956,321.216 183,321.5C 180.903,320.009 178.57,319.009 176,318.5C 174.256,319.036 172.423,319.37 170.5,319.5C 169.177,314.248 168.51,308.915 168.5,303.5C 168.163,299.692 168.663,296.026 170,292.5C 170.27,295.362 171.104,298.028 172.5,300.5C 173.5,298.833 174.833,297.5 176.5,296.5C 181.1,297.443 185.767,297.777 190.5,297.5C 190.838,299.854 191.338,302.187 192,304.5C 192.667,303.167 193.333,303.167 194,304.5C 194.437,309.706 195.27,314.706 196.5,319.5 Z"/></g>
<g><path style="opacity:1" fill="#4cd8f5" d="M 147.5,306.5 C 146.503,323.992 146.17,341.659 146.5,359.5C 143.089,360.067 141.089,358.734 140.5,355.5C 140.5,342.833 140.5,330.167 140.5,317.5C 140.768,314.881 140.435,312.381 139.5,310C 140.132,307.585 141.132,305.418 142.5,303.5C 144.738,302.463 147.071,302.297 149.5,303C 148.177,303.816 147.511,304.983 147.5,306.5 Z"/></g>
<g><path style="opacity:1" fill="#57edf7" d="M 405.5,314.5 C 403.325,314.682 401.325,315.349 399.5,316.5C 397.267,315.385 395.101,315.385 393,316.5C 392.503,313.854 392.336,311.187 392.5,308.5C 392.328,307.508 392.662,306.842 393.5,306.5C 396.492,305.546 399.825,305.546 403.5,306.5C 405.223,308.868 405.89,311.534 405.5,314.5 Z"/></g>
<g><path style="opacity:1" fill="#20c2e5" d="M 344.5,301.5 C 343.357,305.467 340.69,307.301 336.5,307C 335.5,308.667 334.167,310 332.5,311C 333.711,311.893 333.711,312.726 332.5,313.5C 331.216,312.415 329.716,311.748 328,311.5C 321.82,313.461 315.487,314.794 309,315.5C 304.18,314.634 299.347,314.467 294.5,315C 296.556,315.311 298.556,315.811 300.5,316.5C 301.396,315.494 302.062,315.494 302.5,316.5C 299.5,317.167 296.5,317.833 293.5,318.5C 295.326,318.92 297.326,318.92 299.5,318.5C 299.5,319.5 299.5,320.5 299.5,321.5C 303.721,322.192 307.387,321.192 310.5,318.5C 313.015,320.969 316.015,322.802 319.5,324C 313.763,324.266 308.43,325.766 303.5,328.5C 304.55,330.102 303.883,330.935 301.5,331C 305.381,331.35 309.048,330.85 312.5,329.5C 328.096,325.638 342.763,319.638 356.5,311.5C 353.335,315.498 349.668,318.998 345.5,322C 338.942,326.11 332.275,329.943 325.5,333.5C 318.713,334.863 312.046,336.53 305.5,338.5C 302.15,338.665 298.817,338.498 295.5,338C 296.167,337.667 296.833,337.333 297.5,337C 294.39,334.314 291.39,333.814 288.5,335.5C 285.159,334.347 282.159,332.514 279.5,330C 276.97,329.621 274.637,328.787 272.5,327.5C 270.727,326.108 268.727,324.941 266.5,324C 267.167,323.667 267.833,323.333 268.5,323C 265.876,320.91 263.209,319.576 260.5,319C 261.579,316.845 262.913,314.845 264.5,313C 268.901,312.189 269.234,311.023 265.5,309.5C 262.155,310.798 258.988,312.465 256,314.5C 255.5,314.167 255,313.833 254.5,313.5C 255.704,310.74 256.204,308.073 256,305.5C 257.586,306.376 259.086,307.376 260.5,308.5C 261.971,307.619 262.804,306.286 263,304.5C 264.8,306.317 266.966,307.484 269.5,308C 267.405,308.556 267.238,309.056 269,309.5C 271.726,310.436 274.892,310.436 278.5,309.5C 290.415,311.275 302.415,311.942 314.5,311.5C 319.899,311.235 324.899,309.902 329.5,307.5C 334.495,305.501 339.495,303.501 344.5,301.5 Z"/></g>
<g><path style="opacity:0.667" fill="#145d7c" d="M 329.5,307.5 C 324.899,309.902 319.899,311.235 314.5,311.5C 319.192,309.421 324.192,308.088 329.5,307.5 Z"/></g>
<g><path style="opacity:1" fill="#33d4ef" d="M 390.5,257.5 C 387.109,264.615 383.442,271.615 379.5,278.5C 373.183,286.291 366.517,293.791 359.5,301C 351.5,306.667 343.5,312.333 335.5,318C 327.046,321.668 319.38,325.501 312.5,329.5C 309.048,330.85 305.381,331.35 301.5,331C 303.883,330.935 304.55,330.102 303.5,328.5C 308.43,325.766 313.763,324.266 319.5,324C 316.015,322.802 313.015,320.969 310.5,318.5C 307.387,321.192 303.721,322.192 299.5,321.5C 299.5,320.5 299.5,319.5 299.5,318.5C 297.326,318.92 295.326,318.92 293.5,318.5C 296.5,317.833 299.5,317.167 302.5,316.5C 302.062,315.494 301.396,315.494 300.5,316.5C 298.556,315.811 296.556,315.311 294.5,315C 299.347,314.467 304.18,314.634 309,315.5C 315.487,314.794 321.82,313.461 328,311.5C 329.716,311.748 331.216,312.415 332.5,313.5C 333.711,312.726 333.711,311.893 332.5,311C 334.167,310 335.5,308.667 336.5,307C 340.69,307.301 343.357,305.467 344.5,301.5C 356.961,295.146 367.794,286.48 377,275.5C 381.277,269.253 385.777,263.253 390.5,257.5 Z"/></g>
<g><path style="opacity:1" fill="#35ccdf" d="M 347.5,341.5 C 345.738,341.357 344.071,341.691 342.5,342.5C 341.943,340.282 341.943,337.949 342.5,335.5C 352.066,328.111 361.232,320.111 370,311.5C 373.298,307.2 376.965,303.2 381,299.5C 385.281,292.885 389.947,286.552 395,280.5C 386.113,302.363 372.613,321.197 354.5,337C 352.266,338.75 349.932,340.25 347.5,341.5 Z"/></g>
<g><path style="opacity:1" fill="#07a7d8" d="M 218.5,263.5 C 219.167,266.167 219.833,268.833 220.5,271.5C 220.678,274.216 221.178,276.883 222,279.5C 224.282,285.747 226.948,291.747 230,297.5C 234.511,301.001 237.844,305.334 240,310.5C 243.179,312.927 246.346,315.261 249.5,317.5C 256.891,321.624 264.557,324.958 272.5,327.5C 274.637,328.787 276.97,329.621 279.5,330C 282.159,332.514 285.159,334.347 288.5,335.5C 291.39,333.814 294.39,334.314 297.5,337C 296.833,337.333 296.167,337.667 295.5,338C 298.817,338.498 302.15,338.665 305.5,338.5C 300.056,339.884 294.389,340.55 288.5,340.5C 287.828,339.733 286.995,339.066 286,338.5C 282.109,338.203 278.109,338.203 274,338.5C 268.857,338.003 264.024,336.503 259.5,334C 261.107,332.951 261.773,331.451 261.5,329.5C 259.169,329.502 257.169,328.669 255.5,327C 255.833,326.667 256.167,326.333 256.5,326C 255.333,325.5 254.5,324.667 254,323.5C 252.796,324.471 252.296,325.471 252.5,326.5C 249.712,323.09 247.045,319.59 244.5,316C 243.167,315.667 241.833,315.333 240.5,315C 237.642,311.642 234.975,308.142 232.5,304.5C 231.575,305.641 230.741,305.641 230,304.5C 229.667,303.167 229.333,301.833 229,300.5C 228.667,300.833 228.333,301.167 228,301.5C 227.077,300.241 226.243,298.908 225.5,297.5C 224.41,298.391 224.41,299.391 225.5,300.5C 224.672,301.415 223.672,302.081 222.5,302.5C 220.277,295.897 219.944,289.397 221.5,283C 221.167,282.833 220.833,282.667 220.5,282.5C 219.749,283.376 219.249,284.376 219,285.5C 218.5,278.174 218.334,270.841 218.5,263.5 Z"/></g>
<g><path style="opacity:1" fill="#0667a4" d="M 217.5,238.5 C 217.5,239.5 217.5,240.5 217.5,241.5C 217.333,261.503 217.5,281.503 218,301.5C 233.698,328.319 257.198,341.319 288.5,340.5C 294.389,340.55 300.056,339.884 305.5,338.5C 312.046,336.53 318.713,334.863 325.5,333.5C 319.156,337.843 312.156,340.843 304.5,342.5C 287.864,344.887 271.197,345.054 254.5,343C 250.991,341.241 247.325,340.074 243.5,339.5C 233.519,334.902 225.019,328.235 218,319.5C 216.887,305.038 216.387,290.538 216.5,276C 216.5,263.329 216.833,250.829 217.5,238.5 Z"/></g>
<g><path style="opacity:1" fill="#028ac7" d="M 167.5,303.5 C 167.833,303.5 168.167,303.5 168.5,303.5C 168.51,308.915 169.177,314.248 170.5,319.5C 172.423,319.37 174.256,319.036 176,318.5C 178.57,319.009 180.903,320.009 183,321.5C 184.956,321.216 187.123,321.216 189.5,321.5C 189.284,323.681 190.117,325.347 192,326.5C 192.333,325.833 192.667,325.167 193,324.5C 195.091,332.362 195.924,340.362 195.5,348.5C 192.585,346.24 189.085,343.907 185,341.5C 181.786,342.329 178.786,341.662 176,339.5C 175.667,339.833 175.333,340.167 175,340.5C 172.523,339.093 170.023,337.759 167.5,336.5C 167.5,325.5 167.5,314.5 167.5,303.5 Z"/></g>
<g><path style="opacity:1" fill="#2ac9e9" d="M 128.5,319.5 C 130.5,319.5 132.5,319.5 134.5,319.5C 134.042,329.161 133.709,338.828 133.5,348.5C 132.178,348.67 131.011,348.337 130,347.5C 127.053,344.538 124.887,341.038 123.5,337C 122.552,336.517 121.552,336.351 120.5,336.5C 117.856,334.484 117.023,331.817 118,328.5C 120.459,324.202 123.959,321.202 128.5,319.5 Z"/></g>
<g><path style="opacity:1" fill="#2595af" d="M 392.5,308.5 C 392.336,311.187 392.503,313.854 393,316.5C 395.101,315.385 397.267,315.385 399.5,316.5C 401.325,315.349 403.325,314.682 405.5,314.5C 402.76,318.306 399.426,318.972 395.5,316.5C 382.101,331.402 368.101,345.902 353.5,360C 346,365.5 338.5,371 331,376.5C 331.321,378.897 330.821,381.231 329.5,383.5C 329.223,380.552 329.556,377.719 330.5,375C 327.198,373.974 323.865,373.14 320.5,372.5C 323.03,371.224 325.697,371.224 328.5,372.5C 337.248,367.251 345.581,361.417 353.5,355C 367.103,342.402 379.603,328.902 391,314.5C 391.191,312.292 391.691,310.292 392.5,308.5 Z"/></g>
<g><path style="opacity:0.289" fill="#02446d" d="M 166.5,228.5 C 167.404,229.209 167.737,230.209 167.5,231.5C 167.5,255.5 167.5,279.5 167.5,303.5C 167.5,314.5 167.5,325.5 167.5,336.5C 167.5,343.167 167.5,349.833 167.5,356.5C 167.358,365.524 167.692,374.524 168.5,383.5C 170.58,384.044 172.58,384.878 174.5,386C 181.195,386.665 187.862,386.498 194.5,385.5C 195.222,386.551 196.222,387.218 197.5,387.5C 189.344,388.657 181.01,388.823 172.5,388C 169.943,387.315 168.109,385.815 167,383.5C 166.5,331.834 166.333,280.168 166.5,228.5 Z"/></g>
<g><path style="opacity:1" fill="#0d5289" d="M 243.5,339.5 C 247.325,340.074 250.991,341.241 254.5,343C 271.197,345.054 287.864,344.887 304.5,342.5C 287.792,348.429 270.792,348.929 253.5,344C 249.771,343.156 246.437,341.656 243.5,339.5 Z"/></g>
<g><path style="opacity:1" fill="#0e8dbd" d="M 140.5,317.5 C 140.5,330.167 140.5,342.833 140.5,355.5C 140.448,357.903 140.781,360.236 141.5,362.5C 137.357,359.566 134.691,355.566 133.5,350.5C 131.433,349.866 129.6,348.866 128,347.5C 125.08,343.927 122.58,340.261 120.5,336.5C 121.552,336.351 122.552,336.517 123.5,337C 124.887,341.038 127.053,344.538 130,347.5C 131.011,348.337 132.178,348.67 133.5,348.5C 133.709,338.828 134.042,329.161 134.5,319.5C 132.5,319.5 130.5,319.5 128.5,319.5C 132.352,317.662 136.352,316.995 140.5,317.5 Z"/></g>
<g><path style="opacity:1" fill="#53dbed" d="M 392.5,363.5 C 382.8,365.167 378.467,361.167 379.5,351.5C 383.224,347.224 387.557,346.557 392.5,349.5C 397.781,354.413 397.781,359.079 392.5,363.5 Z"/></g>
<g><path style="opacity:1" fill="#16aad1" d="M 342.5,335.5 C 341.943,337.949 341.943,340.282 342.5,342.5C 344.071,341.691 345.738,341.357 347.5,341.5C 335.892,351.142 322.892,358.475 308.5,363.5C 305.482,363.665 302.482,363.498 299.5,363C 297.408,362.047 297.075,360.714 298.5,359C 297.833,358.667 297.167,358.333 296.5,358C 301.474,356.846 305.808,354.68 309.5,351.5C 320.955,346.938 331.955,341.605 342.5,335.5 Z"/></g>
<g><path style="opacity:1" fill="#0273b5" d="M 167.5,336.5 C 170.023,337.759 172.523,339.093 175,340.5C 175.333,340.167 175.667,339.833 176,339.5C 178.786,341.662 181.786,342.329 185,341.5C 189.085,343.907 192.585,346.24 195.5,348.5C 195.181,353.363 195.514,358.03 196.5,362.5C 196.5,370.167 196.5,377.833 196.5,385.5C 198.167,385.5 199.833,385.5 201.5,385.5C 200.486,386.674 199.153,387.34 197.5,387.5C 196.222,387.218 195.222,386.551 194.5,385.5C 194.261,381.158 193.927,376.824 193.5,372.5C 191.061,371.947 188.727,371.947 186.5,372.5C 182.234,370.358 178.234,367.691 174.5,364.5C 173.497,366.542 172.163,366.875 170.5,365.5C 169.047,362.575 168.047,359.575 167.5,356.5C 167.5,349.833 167.5,343.167 167.5,336.5 Z"/></g>
<g><path style="opacity:1" fill="#0675b1" d="M 250.5,356.5 C 265.543,357.991 280.543,357.658 295.5,355.5C 290.979,356.828 286.313,357.994 281.5,359C 283.908,360.115 285.908,361.782 287.5,364C 287.167,364.333 286.833,364.667 286.5,365C 283.383,365.163 280.05,365.33 276.5,365.5C 276.831,367.322 277.498,368.989 278.5,370.5C 274.167,370.5 269.833,370.5 265.5,370.5C 262.15,370.665 258.817,370.498 255.5,370C 257.932,368.913 257.598,368.413 254.5,368.5C 254.881,366.058 254.214,365.391 252.5,366.5C 250.797,365.11 250.13,363.61 250.5,362C 248.045,360.136 245.878,360.302 244,362.5C 242.396,361.351 240.73,361.351 239,362.5C 237.72,362.387 236.887,361.72 236.5,360.5C 239.447,359.679 242.447,359.179 245.5,359C 243.608,358.027 241.608,357.36 239.5,357C 239.833,356.667 240.167,356.333 240.5,356C 243.8,356.046 247.134,356.212 250.5,356.5 Z"/></g>
<g><path style="opacity:1" fill="#34b4de" d="M 147.5,306.5 C 147.83,326.34 147.497,346.007 146.5,365.5C 144.067,365.727 142.401,364.727 141.5,362.5C 140.781,360.236 140.448,357.903 140.5,355.5C 141.089,358.734 143.089,360.067 146.5,359.5C 146.17,341.659 146.503,323.992 147.5,306.5 Z"/></g>
<g><path style="opacity:1" fill="#0b709e" d="M 146.5,365.5 C 147.497,346.007 147.83,326.34 147.5,306.5C 147.511,304.983 148.177,303.816 149.5,303C 147.071,302.297 144.738,302.463 142.5,303.5C 143.108,301.01 144.775,299.676 147.5,299.5C 149.857,300.095 152.023,301.095 154,302.5C 154.667,323.5 154.667,344.5 154,365.5C 151.395,366.814 148.895,366.814 146.5,365.5 Z"/></g>
<g><path style="opacity:1" fill="#0b8dc2" d="M 309.5,351.5 C 305.808,354.68 301.474,356.846 296.5,358C 297.167,358.333 297.833,358.667 298.5,359C 297.075,360.714 297.408,362.047 299.5,363C 302.482,363.498 305.482,363.665 308.5,363.5C 300.572,366.902 292.239,369.235 283.5,370.5C 281.833,370.5 280.167,370.5 278.5,370.5C 277.498,368.989 276.831,367.322 276.5,365.5C 280.05,365.33 283.383,365.163 286.5,365C 286.833,364.667 287.167,364.333 287.5,364C 285.908,361.782 283.908,360.115 281.5,359C 286.313,357.994 290.979,356.828 295.5,355.5C 300.009,354.002 304.675,352.669 309.5,351.5 Z"/></g>
<g><path style="opacity:1" fill="#0c4e7f" d="M 233.5,352.5 C 232.504,352.414 231.671,352.748 231,353.5C 227.731,352.016 224.398,350.682 221,349.5C 220.333,350.167 219.667,350.833 219,351.5C 218.429,356.603 218.929,361.603 220.5,366.5C 235.443,370.296 250.443,371.629 265.5,370.5C 269.833,370.5 274.167,370.5 278.5,370.5C 280.167,370.5 281.833,370.5 283.5,370.5C 261.783,375.726 240.116,374.893 218.5,368C 217.677,365.241 217.01,362.407 216.5,359.5C 217.649,355.462 217.816,351.462 217,347.5C 217.561,346.978 218.228,346.645 219,346.5C 223.98,348.415 228.813,350.415 233.5,352.5 Z"/></g>
<g><path style="opacity:1" fill="#0265a8" d="M 167.5,356.5 C 168.047,359.575 169.047,362.575 170.5,365.5C 172.163,366.875 173.497,366.542 174.5,364.5C 178.234,367.691 182.234,370.358 186.5,372.5C 188.727,371.947 191.061,371.947 193.5,372.5C 193.927,376.824 194.261,381.158 194.5,385.5C 187.862,386.498 181.195,386.665 174.5,386C 172.58,384.878 170.58,384.044 168.5,383.5C 167.692,374.524 167.358,365.524 167.5,356.5 Z"/></g>
<g><path style="opacity:1" fill="#1e93b4" d="M 379.5,351.5 C 378.467,361.167 382.8,365.167 392.5,363.5C 387.18,367.642 382.346,366.975 378,361.5C 377.833,360.167 377.667,358.833 377.5,357.5C 377.361,355.117 378.028,353.117 379.5,351.5 Z"/></g>
<g><path style="opacity:1" fill="#1f9fc1" d="M 204.5,252.5 C 205.665,295.331 205.831,338.331 205,381.5C 204.34,383.324 203.173,384.657 201.5,385.5C 199.833,385.5 198.167,385.5 196.5,385.5C 196.5,377.833 196.5,370.167 196.5,362.5C 196.5,348.167 196.5,333.833 196.5,319.5C 196.5,316.5 196.5,313.5 196.5,310.5C 197.097,321.049 197.93,331.716 199,342.5C 199.605,340.519 200.605,340.185 202,341.5C 202.936,337.886 203.436,334.22 203.5,330.5C 204.498,304.672 204.831,278.672 204.5,252.5 Z"/></g>
<g><path style="opacity:1" fill="#0267a7" d="M 233.5,352.5 C 239.333,353.596 245,354.93 250.5,356.5C 247.134,356.212 243.8,356.046 240.5,356C 240.167,356.333 239.833,356.667 239.5,357C 241.608,357.36 243.608,358.027 245.5,359C 242.447,359.179 239.447,359.679 236.5,360.5C 236.887,361.72 237.72,362.387 239,362.5C 240.73,361.351 242.396,361.351 244,362.5C 245.878,360.302 248.045,360.136 250.5,362C 250.13,363.61 250.797,365.11 252.5,366.5C 254.214,365.391 254.881,366.058 254.5,368.5C 257.598,368.413 257.932,368.913 255.5,370C 258.817,370.498 262.15,370.665 265.5,370.5C 250.443,371.629 235.443,370.296 220.5,366.5C 218.929,361.603 218.429,356.603 219,351.5C 219.667,350.833 220.333,350.167 221,349.5C 224.398,350.682 227.731,352.016 231,353.5C 231.671,352.748 232.504,352.414 233.5,352.5 Z"/></g>
<g><path style="opacity:1" fill="#19b0da" d="M 320.5,372.5 C 323.865,373.14 327.198,373.974 330.5,375C 329.556,377.719 329.223,380.552 329.5,383.5C 320.682,386.673 316.682,383.673 317.5,374.5C 317.973,373.094 318.973,372.427 320.5,372.5 Z"/></g>
<g><path style="opacity:0.933" fill="#126a93" d="M 317.5,374.5 C 316.682,383.673 320.682,386.673 329.5,383.5C 326.335,386.803 322.668,387.303 318.5,385C 315.054,381.658 314.721,378.158 317.5,374.5 Z"/></g>
</svg>
